<svg t="1609912602018" class="icon" viewBox="0 0 2315 1024" version="1.1" xmlns="http://www.w3.org/2000/svg" p-id="19096" width="200" height="200"><path d="M978.60768061 2.140666c13.40955-5.448576 27.140718 1.076472 40.686483 2.292942 11.309579 0.433237 17.049502 11.330389 24.338863 18.345431-4.107242 1.161606-8.233403 2.294834-12.333078 3.428062 0.401076 2.699694 0.779449 5.371009 1.1862 8.066919-3.373198 0.675396-6.71991 1.295929-10.06473 1.942947-0.079458 12.249836 4.992636 23.527253 7.289362 35.345744-2.697802 1.969433-5.722896 3.428062-8.691235 4.937772 1.377279 6.718018-0.508912 13.055771-6.451265 16.943557-8.630695-21.934301-14.162513-44.948858-22.713751-66.938024-3.318334-7.960975-4.882908-16.485726-4.423184-25.093719-2.945636 0.187295-5.883705 0.431346-8.823665 0.728369z" fill="#CA352B" p-id="19097"></path><path d="M958.42903061 20.862578c-1.538088-11.515792 10.704181-17.293553 20.17865-18.721912 2.939961-0.298915 5.87803-0.541074 8.823665-0.730261-0.459724 8.607993 1.10485 17.132744 4.423184 25.093719 8.551237 21.989165 14.083055 45.003723 22.713751 66.938024-1.019716 0.512696-3.044013 1.538088-4.071297 2.075378-2.241862 0.917555-4.478048 1.835111-6.691532 2.752665a168.126401 168.126401 0 0 1-11.086338-0.268645c-1.082148-9.552034-9.686357-13.598737-17.023016-17.917868 0.805935-21.499172-15.730871-38.308407-17.267067-59.2211zM952.86883561 505.456639c6.98288 0.972419 13.918463 2.32132 20.854045 3.749679a320.188962 320.188962 0 0 1-7.747194 18.290567c3.295632 0.19297 6.613966 0.378373 9.928516 0.594046l-0.104052 2.724288c-5.906408 13.140905-24.092921 12.249836-36.181949 9.769599a594.053679 594.053679 0 0 0-5.342631-10.172567c2.970231-0.836205 5.938569-1.67241 8.927718-2.480237-2.366725-6.718018-8.846368-18.050299 1.837003-20.855937 1.032959 5.529926 2.294834 11.00688 3.539682 16.481941a1007.16356 1007.16356 0 0 0 16.939773-6.472075 573.106932 573.106932 0 0 0-12.650911-11.629304zM939.83387461 536.592979c9.555818 1.971325 19.51082 2.264564 28.84529-0.972419-4.669127-3.643735-8.95988-11.440117-15.836816-9.417712-4.504534 3.238876-8.660965 6.937475-13.008474 10.390131zM1558.73911261 531.925744c7.665843 4.018325 6.498562 13.436037 6.901529 20.693237-0.319725 7.796382 1.483223 15.40547 3.320226 22.933207-9.419604-0.270537-10.986069-9.550143-12.009569-17.051394 0.489993-8.84826 1.08404-17.72679 1.787814-26.57505z" fill="#A3312A" p-id="19098"></path><path d="M1084.90409661 80.81583c9.718519-2.72618 18.94326 5.096689 28.737454 2.669424 9.737437-0.673505 20.530536-6.475859 29.569875-0.431346 12.516589 5.961272 26.361269 8.92961 38.607321 15.48682 8.770694 6.905313 20.479456 14.514401 18.94326 27.356391-1.401873 7.419901 7.446387 7.177742 12.166595 9.173661-0.130539 4.911286-3.102661 10.819585 0.919447 14.921152 8.201242 8.713938 7.470981 22.717534 2.050783 32.674428-11.146878 12.868477-26.739642 20.801073-41.335393 29.10826 7.715032 12.196864 16.648426 25.929924 12.67929 41.091342-6.069108 19.130555-18.504347 35.616281-31.645253 50.480677a300.227878 300.227878 0 0 0-9.799869 9.444198c-7.336659 8.203134-17.102474 13.950624-27.897465 16.21708-7.255308-3.938866-15.159527-6.422887-23.124285-8.47367-4.476156-5.963164-9.35528-11.57444-14.811424-16.648426 4.725883-4.612371 11.551737-8.659073 11.795789-16.026002 1.401873-16.078974 0.698099-32.296055 0.242159-48.429893-0.270537-12.113622-4.319131-25.791817 4.046702-36.208435 3.935083-6.284781 9.847166-12.246052 17.562198-13.163608 12.414429 1.589168 24.849668 5.558304 37.475985 3.532115 6.744504-3.857516 10.713641-11.70687 12.976313-18.937585-7.470981-5.505332-17.130852-6.451265-26.117218-6.532615-15.462226 0.08135-30.810939 1.942947-46.186139 3.428062-9.60879 1.025392-19.073799-3.047797-28.68259-1.10485-17.130852 3.210498-31.968762 13.436037-48.779888 17.698412-7.610979-0.215673-15.214391-0.836205-22.825371-1.401873 3.670221-6.207214 7.450171-12.331186 11.250931-18.426781-4.423184 0.240267-8.872854 0.457832-13.271444 0.834314 14.406564-3.074283 29.836628-3.236984 42.814833-11.088231 6.097486-4.39859 13.706573-2.402671 20.670534-3.399684 5.581006 0.054864 8.791504-5.100472 12.59794-8.388536 8.467995 3.318334 17.297336 1.347009 25.629117-1.379171-13.193878-11.57444-31.7039-11.653898-48.1026-14.514401-10.146081-1.75376-20.426484-2.591857-30.703103-2.88888-0.160809-8.553129-0.64891-17.075988-1.596736-25.547766 10.92553-2.752666 22.045921-4.642641 33.160638-6.504238 14.247647-3.019419 26.629914-11.735248 40.981614-14.620345z" fill="#CC352A" p-id="19099"></path><path d="M1010.49509161 95.517526c10.902827-0.457832 23.631306-6.852341 33.431175-0.079459-11.114716 1.861597-22.235108 3.751571-33.160638 6.504237 0.947825 8.47367 1.435927 16.994638 1.596735 25.547767 10.278511 0.297023 20.557022 1.13512 30.703103 2.88888-4.51021 4.073189-10.416617 2.319428-15.836815 2.264565-7.043419-0.402968-14.003597 0.972419-20.994044 1.67241-8.901232-0.351887-18.160027-0.512696-26.469105-4.128053-7.039636-11.252823 8.634479-18.265972 15.055474-25.091827-8.363942-0.48621-16.701398-1.29782-25.033179-1.995919 11.547954 1.1862 23.606711 0.94215 34.015762-4.831827 2.213484-0.913772 4.451562-1.831327 6.691532-2.750774z" fill="#B4322B" p-id="19100"></path><path d="M957.83309261 107.634931c3.855624-1.698896 7.444495-5.126958 11.952814-4.53102 8.33178 0.698099 16.671128 1.507818 25.033178 1.995919-6.420995 6.823963-22.09511 13.837112-15.055474 25.091827 8.31097 3.615357 17.567873 3.776166 26.469106 4.128052-12.76064 5.58479-27.114232 5.908299-39.6592 12.140108-7.665843 3.641843-18.617859 0.215673-24.25373 7.745302-1.893758 7.741518-0.459724 17.480847-8.42259 22.204838a1023.76469 1023.76469 0 0 1-5.853435-7.879624c-18.422997 3.481035-37.665172-0.431346-56.006819 4.612371-3.076175 3.481035-5.022906 7.771788-7.93638 11.360659-4.313456-0.433237-8.31097-2.160512-12.300917-3.696708-10.707965 7.822868-24.314269 4.856422-36.267082 8.443401-5.4429 4.937772-8.197458 12.601723-15.668439 15.218175 5.176147-10.738235 11.354983-21.179447 19.527847-29.921762 6.528832-7.308281 16.951125-7.983677 24.855343-13.08415 8.632587-5.531818 15.182229-13.708465 24.005895-18.967854 9.149067-5.855327 21.374309-3.454548 29.978518-10.441212 5.369117-3.481035 9.149067-9.847166 15.969246-10.656884 14.923044-3.104553 30.277433-5.938569 43.632119-13.761438zM943.85598261 491.804929c10.685263 2.15862 21.991057 1.108634 32.434161 4.184809l0.104053 5.476954c-6.825855 6.636668-15.403578 3.074283-22.715643-0.512696-0.272429 0.889177-0.781341 2.69591-1.023499 3.613466a1405.851743 1405.851743 0 0 0-3.401577-7.472874c-1.320523 1.538088-2.620235 3.076175-3.887785 4.642641-2.852935 3.692924-6.685857 6.419103-10.707965 8.713938 1.751868-6.368023 0.919447-17.350309 9.198255-18.646238z m19.802168 7.257201c0.459724 3.832922 2.241862 4.506426 5.399387 1.997811-0.459724-3.779949-2.241862-4.451562-5.399387-1.997811z" fill="#A2312B" p-id="19101"></path><path d="M969.46239661 178.483443c6.63856-3.129147 12.59794-7.930705 19.993247-9.336361 4.396698-0.376481 8.84826-0.592154 13.271444-0.834314a907.632459 907.632459 0 0 0-11.250931 18.426781c7.610979 0.565668 15.214391 1.1862 22.825371 1.401873-10.276619 2.885097-21.635386 1.725382-31.077693 7.312065-9.52744 5.206417-20.566482 5.910191-30.733373 9.173661-7.126661 2.319428-12.656588 7.959083-19.911896 9.875543-15.808437 4.235889-32.967667 6.018028-46.566404 15.944652-8.738532 6.718018-20.449186 7.230714-29.299338 13.734952-13.621439 9.387442-25.791817 21.851059-42.574566 25.43993 8.467995-12.923341 16.457348-26.764237 29.165016-36.100599 8.305294-8.227728 20.316755-10.007974 30.436349-15.187905 12.247944-5.369117 22.55105-14.380078 35.205746-18.967854 12.652804-4.8848 24.119407-12.382267 37.016262-16.729777 7.556115-2.641046 15.677898-2.722396 23.500766-4.152647z" fill="#A1312B" p-id="19102"></path><path d="M1032.70371361 211.80489c16.941665-0.03027 32.375513-8.850152 49.320962-8.71583-9.283389 5.613168-19.618657 10.386348-26.873965 18.672723-1.861597 26.117218-1.861597 52.58254-0.136214 78.754623 1.460521 8.012055-7.525845 11.57444-12.138216 16.351403 15.136825 1.133228 29.380688 6.960177 40.009194 17.968949-11.387145 0.592154-22.770506-0.945933-33.919276-3.021311-7.628006 6.366131-16.911395 10.329592-26.978017 10.386348-17.590576 0.215673-33.826575 7.771788-51.097425 10.091216-12.463617 2.374293-26.062354 2.23997-36.938696 9.631493C922.73518361 369.529808 911.67343961 377.354568 901.01277161 385.690132c-10.713641 8.256106-17.161122 20.507834-27.036665 29.600145-9.062041 8.31097-17.297336 17.912193-21.531334 29.622847-4.288862 12.949827-14.915476 22.82537-17.617062 36.422216-6.021811 25.199663-13.464415 50.427704-13.676303 76.54303-0.56756 23.31158 3.15185 46.515324 7.467197 69.342587 12.845774 30.080679 27.146394 59.75839 44.657511 87.495046 6.150458 8.92961 14.839802 15.759249 20.905126 24.768317 8.882314 13.623331 23.608603 21.395119 35.400608 32.106868 8.634479 7.28747 17.698412 14.028191 26.573158 21.016746-6.498562 4.585885-14.077379 10.552832-22.577536 8.174756-10.197161-2.213484-19.972436-6.042622-30.247163-7.74341-5.912083-6.909097-13.86549-11.521468-21.52755-16.162216a989.764063 989.764063 0 0 0-5.01723 6.742612c-0.811611 1.106742-2.425373 3.322118-3.238876 4.42886-4.616154-2.079161-9.256903-4.103459-13.840896-6.262078-3.265362-1.698896-6.772882-3.399684-9.067717-6.36424-0.699991-0.947825-2.12835-2.809422-2.82834-3.753463-5.531818-8.689343-12.467401-16.833829-22.585104-20.125677a727.138926 727.138926 0 0 1 2.376185-8.125567c-5.01723-0.830529-10.388239-4.148863-15.352498-2.020513-5.45236 4.375887-10.335267 9.499062-16.463023 13.033069 3.832922 6.016136 6.241268 12.789018 7.183418 19.883518-8.742316-3.342928-10.929313-12.787126-15.488712-19.911896-12.247944-15.887896-24.579131-32.723617-29.95014-52.36876 5.721005-2.699694 14.385754-4.207511 14.764127-12.056865-0.028378-8.39232-10.172567-9.767707-16.463023-11.468496a535.557163 535.557163 0 0 1-2.047 14.866288c-2.376184-2.724288-5.668032-4.994528-6.825855-8.553129-4.559398-16.756262-12.410645-32.405783-16.052488-49.428798-5.045608-14.060353-4.532912-29.195285-7.930705-43.573472-8.34124-19.533523-1.348901-40.928642 1.780247-60.89351 1.916461-12.681182 0-26.11911 5.365334-38.151382 9.44609-20.746209 12.306592-44.596971 27.82179-62.272681 3.422387 1.942947 6.280997 5.344523 10.331483 5.963164 7.334767-2.85861 9.794193-10.92553 11.627412-17.804357-3.832922-2.968339-7.633682-5.910191-11.330389-9.012852 4.156431-4.8848 9.224742-9.090419 12.624426-14.595751 1.564574-5.204525 1.401873-10.711749 2.832124-15.920057 5.53371-3.855624 13.033069-4.099675 18.001111-8.738532 7.711248-8.256106 9.815004-20.101083 17.724898-28.222866 7.737734-8.337456 11.250931-19.319742 16.807343-29.032585 6.311267-11.061744 19.315958-14.892774 29.165015-21.905923 6.04073-6.63856 9.875544-15.191689 16.890585-21.018638 11.468495-11.196067 28.353405-13.651709 39.878656-24.792912 14.941962-8.201242 31.130665-14.030083 46.80478-20.721615 11.877138-5.961272 25.472092-1.348901 37.803278-5.234794 8.547453-2.504831 16.451672-7.495575 25.600739-7.658276zM1301.64200961 857.442203c14.784937-3.454548 29.299338 1.698896 43.301043 5.906407 4.856422 1.352685 9.745005 2.678883 14.622236 4.022109-6.473967 0.592154-12.976313 1.189984-19.452172 1.721598-1.780246 6.241268-4.585885 12.473076-4.260483 19.079475 1.997811 7.444495 7.796382 13.080366 12.656587 18.807046-11.092014-1.727274-21.856735-5.236687-33.056585-6.368023 7.849355 4.610479 16.375997 7.877733 24.633995 11.652006-6.606398 5.906408-13.649817 1.997811-19.826762-2.2097-0.382157 1.0235-1.1862 3.102661-1.568357 4.156431a122.08026 122.08026 0 0 1 22.100785 14.24008c-9.714735-2.156728-19.858924-4.879124-27.114232-12.138216-10.46959-9.956894-24.038057-15.836815-38.075707-18.695426 9.559602 9.41582 17.026799 20.92972 27.850168 29.025017 12.276322 7.452063 26.94964 9.52744 39.604336 16.355187-15.080069-1.324307-30.188515-3.91238-44.30184-9.603115-4.230214-2.272132-9.010961-1.273226-13.519279-0.785125 12.418212 11.330389 29.036369 15.889788 44.470216 21.4462-7.77368 0-14.784937 3.371306-19.667845 9.368524 6.150458 4.366428 12.329295 8.738532 18.483537 13.135229-5.155336 1.294037-10.335267 2.620235-15.543576 3.643735-5.499656 0.052972-10.980394-0.433237-16.457348-0.433237 13.356578 5.883705 27.925843 7.715032 42.114842 10.52067-7.416117 1.515385-14.542779 4.022108-21.502955 6.933691 16.111136 6.475859 33.728198 4.998312 50.696349 6.097486-53.609824 7.909894-109.940152 6.260187-161.234331-12.463617-20.903234-7.985569-40.739455-19.181635-57.274369-34.367649-7.556115-7.20612-19.100285-8.87853-25.199663-17.864896-8.206917-11.033366-15.165203-23.014557-24.927234-32.804967 14.028191-7.173958 29.619063-2.510507 44.432378-1.617546-1.916461-2.186998-3.859408-4.373996-5.772085-6.528831 9.788518-4.860205 18.640562-11.309579 27.059368-18.245162 17.671926-8.33178 37.610308-2.85861 56.25087-5.715329 4.667235 3.371306 9.360956 6.770991 14.328997 9.765816 0.293239-4.451562 0.459724-8.84826 0.650803-13.275228 27.379093-3.346712 55.250072-9.686357 82.716191-2.994825-5.753166-3.265362-11.631196-6.284781-17.217878-9.765815z m-113.667129 25.35858c5.826949 4.481832 12.463617 7.69233 19.183527 10.579318a777.320688 777.320688 0 0 1 3.399685-10.282295c-7.503143-0.883502-15.083852-1.157822-22.583212-0.297023z m-14.465212 1.731058" fill="#A4322B" p-id="19103"></path><path d="M1082.02467561 203.08906c4.667235-0.376481 9.360956 0.026486 14.028191 0.134323-8.365834 10.416617-4.315348 24.094813-4.046703 36.208434 0.45594 16.133838 1.159714 32.350919-0.242159 48.429893-0.244051 7.366929-7.069905 11.413631-11.795788 16.026002 5.456143 5.073986 10.335267 10.685263 14.811424 16.648426 7.964758 2.048892 15.868977 4.532912 23.124285 8.473671-8.549345 1.833219-17.238688 0.348103-25.706683-1.271334-3.108337 2.374293-6.18262 4.775071-9.311768 7.098283-10.628507-11.008772-24.87237-16.835721-40.009194-17.968949 4.612371-4.775071 13.598737-8.337456 12.138216-16.351403-1.725382-26.170191-1.725382-52.637404 0.136214-78.754623 7.255308-8.286376 17.590576-13.059555 26.873965-18.672723z" fill="#BA322B" p-id="19104"></path><path d="M1200.92659961 203.304733c13.05388-1.241064 26.198569 0.270537 39.14272 2.024297 13.199553 1.997811 23.154555 12.005785 35.618172 15.918166 6.12208 1.106742 12.357673 1.05377 18.536509 1.75376-6.394509 0.351887-12.737938 0.944041-19.105961 1.564574 6.691532 1.430251 13.415226 2.77726 20.182433 3.725085-3.184011 1.645924-6.366131 3.342928-9.49717 5.098581 4.262375 4.126161 9.04123 11.897949 16.052488 8.927718 5.690735-1.698896 6.042622-8.416914 8.39232-12.949827 19.561901 1.566466 38.26111 8.526643 56.038981 16.514104 8.063135 3.18212 18.160027 2.561587 23.73725 10.410942-7.173958 0.189187-14.190891-1.21647-21.149177-2.724288-2.917258 5.747491-6.854233 10.846071-10.876341 15.863301a585.561089 585.561089 0 0 0 4.402374 10.197161 1239.60775 1239.60775 0 0 0 9.094202-1.483223c6.069108 8.500157 15.918166 12.654696 25.735062 14.947638 3.269145-7.446387 8.206917-13.922246 12.845774-20.532429-4.022108-3.802652-8.012055-7.66206-11.466604-11.979299 11.54417 1.59106 21.769709 7.663952 30.648239 14.976016-4.319131 1.428359-8.634479 2.77726-12.815504 4.423184 2.535101 3.507521 5.556412 6.63856 8.553129 9.794194-6.825855-0.728369-14.031975-2.213484-20.613779 0.539182-3.643735 2.886988-1.267551 7.635574 2.073486 9.525548 6.587479 4.39859 13.280904 8.768802 18.428673 14.91926 3.40536-0.645127 6.80126-1.318631 10.20662-1.995919 0.128647 4.506426 0.266753 9.010961 0.427562 13.545764 6.475859 1.347009 13.139014 0.968636 19.696223 0.431346 5.126958 13.086041 17.238688 20.664859 27.519091 29.299338 11.629304 9.631493 16.918963 24.82129 29.252042 33.7509a160.600555 160.600555 0 0 1 6.498561-7.122878c2.88888 2.376184 5.586682 4.990744 8.363943 7.527737-2.722396 2.671316-5.635871 5.153445-7.904219 8.22962 1.50971 3.670221 3.481035 7.149364 5.013446 10.846071 0.270537 5.637762 0.194862 11.303903 0.113512 16.970044-14.976016-14.571157-26.875857-31.972545-36.723022-50.319868-7.985569-9.279606-18.964071-15.297633-28.007193-23.470497-14.974124-15.002502-33.938195-24.878046-50.289598-38.175976-2.376184 13.786032 14.514401 17.887599 22.823479 25.224257 19.452172 17.348417 42.175382 32.513619 54.746835 56.065467 4.260484 8.19935 13.78414 12.571454 16.133839 21.907815 6.12208 15.836815 9.25312 35.128179 24.009678 45.516419 0.134323 12.491995 0.191079 29.730684 14.892774 33.885222-2.185106 7.232606-5.07777 15.002502-1.157822 22.231324 4.748585 10.496076 3.774274 22.123488 3.611573 33.323339 2.669424 2.183214 5.45236 4.315348 8.012055 6.716126-2.722396 9.200147-5.668032 18.428673-5.853435 28.111246-2.563479 11.65579-4.990744 23.419417-4.748585 35.427094-0.351887 6.339645 3.021311 12.355781 2.241862 18.668939-7.183417 14.408456-18.021921 26.682886-24.579131 41.390258-4.644532 15.483036-3.940758 32.699022-12.414429 46.971264-9.143391 14.809532-23.76752 25.089935-33.321446 39.632713-4.960474 9.012852-16.534914 7.847463-25.252635 9.657979 4.748585-20.963774 19.2365-37.907331 31.433363-54.934131 4.341834-12.327403 16.026002-20.608103 18.347323-33.724413 4.98696-19.934598 14.298728-38.499485 19.344335-58.411382 3.617249-18.158136 10.303105-36.369243 7.066122-55.121425-2.099972-10.711749-1.64214-21.63917-1.64214-32.481457-0.107836-13.40955-7.312064-25.441822-8.664749-38.664078-0.807827-5.53371-0.510804-11.305795-2.427265-16.62194-4.557507-6.260187-11.708762-10.982286-13.462523-18.99434-3.261578-8.418806-3.286172-18.453267-9.762031-25.333986-10.06473-11.924435-19.105961-24.874262-25.797493-39.014073-6.394509-7.904219-14.97034-13.761438-22.17646-20.90891-17.378687-17.24058-38.633808-29.706089-58.118142-44.275354-12.437131-5.395604-24.819398-10.899043-36.692753-17.484631-25.195879-9.224742-51.585526-14.783046-76.944106-23.551847-22.639968-8.555021-47.544499-2.593749-70.506084-9.499062-3.745896-1.05377-5.499656-3.534007-5.255606-7.448279 5.906408-9.955002 18.426781-13.975219 23.631306-24.33508-0.433237-7.312064-1.942947-14.487914-2.858611-21.745115 3.184011-3.859408 9.797977-7.960975 6.207215-13.680087-4.990744-7.650709-12.976313-12.669831-18.990557-19.469199z" fill="#CC291F" p-id="19105"></path><path d="M1275.11803961 224.56553c6.366131-0.620532 12.711452-1.214578 19.105961-1.564574 1.214578 1.458629 3.611573 4.341834 4.829935 5.773977l-3.751571-0.484318c-6.769099-0.947825-13.492793-2.292942-20.184325-3.725085z" fill="#993B36" p-id="19106"></path><path d="M1436.48669261 298.681296c0.272429-5.369117-5.558304-17.157338 3.617249-16.807343 35.669253 16.026002 61.973766 46.46046 87.684233 74.950079 12.143892 13.706573 19.321634 30.704995 30.356892 45.217503 5.558304 8.662857 9.981488 18.080569 14.026299 27.575848-1.884299 0.349995-5.668032 1.025392-7.552332 1.375387-8.933394-16.160324-16.485726-33.130368-27.844492-47.809361-10.091216-17.215986-22.12538-33.618469-38.17976-45.732091-16.457348-16.001408-32.833345-32.835237-53.526582-43.329421-2.994825 1.269442-5.745599 2.992933-8.581507 4.559399z" fill="#B32F27" p-id="19107"></path><path d="M1155.59936761 303.346639c9.684465-3.397792 18.964071-7.741518 28.086652-12.329295 8.144486 0.972419 16.860315 3.235092 22.441321 9.686357 4.998312 5.798571 12.115514 9.387442 16.782749 15.48682 0.541074 7.366929-0.433237 14.839802 0.807827 22.17646 11.905516 0.620532 23.343742-3.586979 33.030099-10.250133 9.928516-0.541074 20.449186-1.511601 29.647441 3.102661 6.422887 3.023203 15.543576 3.507521 18.265972 11.226336 3.047797 7.578818 10.494184 11.682276 16.345727 16.833829 2.166187 16.404375-10.677695 29.248258-24.004003 36.289785-14.223053 5.206417-28.867992 9.035555-44.031303 9.981489-0.353779 1.70268-1.055662 5.126958-1.434035 6.854232 9.797977 1.780246 19.484334-1.212686 29.250149-0.917555 10.009866 3.210498 20.34135 5.287767 30.379594 8.363942-6.903421 9.90203-15.301417 19.022719-20.04811 30.24338-1.564574 5.965055 2.85861 10.793099 8.713937 11.116608 16.031678 2.132134 28.519889 15.647629 33.66955 30.379594 1.861597 7.17585 2.512399 14.677101 5.501548 21.557819 1.997811 3.586979 0.410535 8.903124-3.989946 9.629601-12.490103 2.675099-25.012368 5.45236-37.309501 8.852044-7.450171 3.779949-15.140608 6.960177-23.018341 9.739329 0.351887 1.941055 1.082148 5.798571 1.434035 7.715032 9.90203 3.373198 19.446497 7.74341 29.030692 11.926327 12.817396 7.796382 24.849668 17.21031 39.250557 22.070516 11.958489 7.068014 23.665359 14.595751 36.187624 20.666751 11.519576 3.806436 16.886801 15.674115 26.978018 21.745114 12.062541 7.527737 19.96676 19.698115 31.433363 27.899357 4.341834 3.532115 10.573642 7.336659 8.22962 13.946841-4.262375 5.637762-10.742019 9.200147-16.54059 13.087933-9.847166 1.914569-20.129461 1.10485-29.895276 3.666437-10.492292 2.671316-22.363755 5.721005-32.15984-0.620532-13.437928-2.830232-27.441525-1.10485-41.062965-2.504831-7.336659-1.29782-9.069608-9.688249-10.465806-15.759249 10.140405-2.23997 20.693237-0.132431 30.81094-2.183214 6.231809-3.507521 16.404375-7.179634 15.293849-15.948436-15.159527-20.5854-36.60951-35.720333-59.406503-46.783969-16.026002-4.423184-31.942276-9.279606-47.485851-15.161418-13.979002-3.696707-28.574753-1.159714-42.820509-0.97242-15.131149 0.160809-31.107962 2.238078-44.110761 10.494184-11.896057 12.412537-26.172082 23.14888-34.081977 38.824886-6.258295 12.516589-12.191188 25.254527-19.745412 37.095721-8.634479 13.436037-11.250931 30.300135-22.636183 42.007005-10.384456 11.008772-13.627115 26.739642-25.120205 36.804373-6.962069 9.849057-19.722709 12.140108-27.678008 20.90891-10.123378 5.798571-18.021921 14.241972-26.121002 22.475375-8.76691 9.765815-23.415633 5.717221-33.399013 13.519279-10.742019 5.609384-21.63917 10.952016-32.753887 15.727087-4.667235 0.752963-9.33447 1.299712-14.003596 1.831327-9.930408-5.123175-19.31785-11.273633-27.655306-18.721912-0.94215-4.046703-1.912677-8.091513-2.858611-12.087136 10.276619 1.698896 20.051894 5.529926 30.247164 7.74341 8.498265 2.378076 16.078974-3.588871 22.577536-8.174756 9.960678-10.55094 16.056272-23.958599 25.390741-34.96737 4.964258-5.936677 5.558304-15.889788 13.924138-18.343538 18.154352-7.800166 31.159043-24.039949 39.581633-41.44323 14.43305-13.541981 18.585697-33.614686 28.05449-50.42392 8.640155-12.465509 10.200945-27.950437 15.138716-42.008898-14.168189-2.15862-28.466917-1.0235-42.657808-0.998906-10.603912-5.369117-16.70329-16.459239-26.334783-23.23023-7.959083-5.692627-13.78414-16.404375-9.063932-25.956409 18.103271-7.904219 39.093531 1.106742 57.035994-7.552332 11.731465-4.937772 24.849668-6.368023 35.883033-12.870368 10.465806-8.715829 19.128663-19.614873 25.981004-31.352013-8.31097-2.266456-16.864099-3.641843-24.821289-7.068014-8.933394-4.343726-19.102177-1.889975-28.495295-4.182917-0.372698-1.076472-1.10485-3.265362-1.483223-4.343726 7.20612-7.068014 16.463023-11.302011 25.337769-15.808437 7.039636-3.535899 15.273039-2.264564 22.66267-4.642641 6.933691-3.100769 12.408753-8.551237 17.079771-14.406564-13.999813-6.691532-24.448592-18.426781-34.426296-29.946356-2.697802-8.363942-4.835611-16.945449-8.79718-24.876154-1.617546-10.899043-0.698099-21.989165-0.238375-32.914695 11.731465 3.373198 23.519686 7.2572 35.932222 6.392617 11.846869 1.619438 21.234311-6.581804 31.649037-10.549048-11.08823-13.708465-7.12477-32.080382-7.69233-48.322057a302.210554 302.210554 0 0 1 9.799869-9.446089z m15.210607 219.539767c3.214281 3.34482 6.072892 7.232606 10.204729 9.523656 9.198255-2.185106 18.86191-2.750774 27.708278-6.231808 13.40955-6.772882 29.976626-2.455643 42.304029-12.032272-0.510804-3.802652-1.055662-7.609087-1.617546-11.385253-15.104663-3.399684-30.97364-3.776166-46.159653-0.592154-12.331186 4.233997-25.825871 8.335564-32.439837 20.717831z m-83.361317 158.941388c-8.040433 10.335267-14.784937 21.771601-22.802668 32.216596-2.750774 3.829138-7.930705 3.532115-12.003894 4.799666-2.809422 12.813612-13.330092 22.148082-15.48682 35.183043 4.095891-1.995919 8.441509-3.991839 11.220661-7.796382 17.161122-20.292161 38.849481-39.36596 44.46454-66.535057-1.347009 0.539182-4.042919 1.59106-5.391819 2.132134z" fill="#d81e06" p-id="19108"></path><path d="M1258.63798961 597.16298c9.521765-3.210498 21.336471-1.833219 28.001518 6.341537 7.173958 6.368023 3.428062 16.998421 7.584493 24.768318 3.373198 6.528832 3.076175 14.028191 4.233997 21.124582 0.594046 6.044514 6.362347 10.333375 6.263971 16.568968 0.559993 12.168486-4.888583 23.551847-5.639655 35.638982-3.454548 22.25781 1.375387 45.138045-4.400481 67.102617-2.675099 10.195269-2.773476 20.799181-3.806436 31.246068-0.563776 9.25312-9.226633 14.563589-15.458442 20.150272-4.693721 1.942947-9.468792 3.611573-14.298728 5.126958-8.526643-1.110526-16.107352-5.019122-23.718331-8.689343-7.308281-2.241862-12.972529 3.371306-18.911099 6.447481-8.256106 2.079161-17.161122 0.726477-23.956706-4.504534-6.451265 4.801557-13.897652 7.930705-21.478362 10.414725-8.416914-6.311267-15.887896-13.706573-23.39293-21.020529-3.908596-2.939961-3.047797-8.144486-3.236984-12.406861 0-25.553442 2.268348-51.721741-4.720207-76.652759-2.588074-15.728979-2.588074-31.785251-2.291051-47.673147 3.367523-23.124285 12.408753-45.247773 26.274244-64.052927 10.253917-3.505629 20.102974-9.224742 31.13634-9.710951 8.148269 11.356875 22.450781 14.219269 35.563308 15.055474 10.653101-1.108634 16.860315-11.309579 26.251541-15.274931z m-36.371135 42.411866c-9.391226 3.779949-11.415523 14.976016-13.625223 23.718331-1.698896 12.599832-3.588871 25.144799-6.260187 37.557336-1.617546 4.937772 2.024297 12.115514 7.959083 10.040136 13.275228-3.562385 26.983693-2.109431 40.55216-2.296726-0.703774-23.421308 1.774571-46.889914-0.455939-70.201494-9.387442-0.351887-18.916774-0.569452-28.169894 1.182417z m-35.103585 13.840896c-2.457535 3.185903-1.835111 5.01723 1.916461 5.423981 2.512399-3.210498 1.889975-5.01723-1.916461-5.423981z m-6.097486 62.811862c2.400779-2.834016 7.151256-5.694518 5.611277-10.062838-1.483223-7.418009-2.162404-14.943854-2.669424-22.448889-5.777761 9.739329-7.039636 21.907815-2.941853 32.511727z m15.543576 35.803576c0.94215 4.048595 3.206714 7.983677 7.389631 9.41582 8.604209 3.505629 15.246553 10.333375 23.368336 14.622237 8.22962 0.945933 16.593562 1.538088 24.90264 1.106742 1.048094-8.876638 1.507818-17.836518 0.29324-26.682887-14.569265-1.698896-30.621753 1.428359-43.463743-7.177742-5.965055-4.773179-12.921449 2.533209-12.490104 8.71583z m-17.647331 35.722225c-3.482926 2.586182-0.136214 10.195269 4.07508 6.878827 3.477251-2.593749 0.08135-10.146081-4.07508-6.878827z" fill="#d81e06" p-id="19109"></path><path d="M1526.49413861 424.760961c7.556115 6.176944 9.224742 16.323025 14.328997 24.227244 3.503737 6.392617 9.41582 12.170378 9.330686 19.964868 0.48621 9.578521 2.266456 19.02461 3.187795 28.544483-1.564574-0.162701-4.638857-0.539182-6.18262-0.726477-1.1862-12.251728-3.2332-25.55155-10.140405-35.831953-0.945933-0.915663-2.80753-2.69591-3.751571-3.586979 2.860502-9.309876-2.748882-17.07788-8.445293-23.79779 0.541074-2.939961 1.110526-5.881813 1.672411-8.793396z" fill="#AC2B26" p-id="19110"></path><path d="M889.38157561 439.004825c0.707558-3.236984 2.699694-4.937772 6.044514-5.126959 9.360956-1.59106 18.858126 0.378373 28.219082 1.082148 16.218972 1.995919 32.731184 3.100769 48.378813 8.093405 7.22693 10.846071 5.910191 24.90264 5.938569 37.366257-7.151256-7.503143-14.325214-14.947638-22.153758-21.747006-3.346712 3.320226-6.475859 6.825855-9.657979 10.304997-3.989947 3.806436-9.306092 4.831827-14.487914 2.996717 4.992636-3.723193 10.303105-7.016933 15.377092-10.656885-6.335861 0.268645-12.64902 0.701883-18.964071 1.051878 1.265659 6.797477 2.943744 13.543873 4.723991 20.261891-2.022405 0.701883-4.078864 1.430251-6.10127 2.130242-1.1862-8.416914-1.50971-17.132744-4.911286-25.038854-2.943744 8.312862-1.218362 20.426484-11.578223 23.799682 1.004581-5.450468 2.353482-10.846071 3.269145-16.294647-5.987758 4.667235-7.633682 12.032272-8.852044 19.128663a106.72587 106.72587 0 0 1-4.391022-7.879625c-4.833719 0.433237-9.661763 0.891069-14.520076 0.809719-0.565668-13.464415-1.188092-27.439633 3.666437-40.281623z m6.369915-2.15862c-8.933394 7.285578-7.043419 20.154055-7.313956 30.351216 4.158323-1.456737 8.312862-2.913475 12.469293-4.423184-2.024297-0.402968-6.042622-1.239173-8.06692-1.645924 1.265659-3.562385 2.480237-7.149364 3.534007-10.762829 2.156728-2.213484 4.2567-4.47994 6.366131-6.718019a259.110049 259.110049 0 0 0 10.654993 7.068014c-1.352685 4.233997-2.563479 8.526643-3.99373 12.734154 2.241862 0.891069 4.51021 1.780246 6.744504 2.671316-0.130539-6.473967-0.378373-12.923341-0.541074-19.370822 5.511007-0.160809 10.986069-0.215673 16.485726-0.160809-4.612371 3.34482-9.550143 6.284781-13.729276 10.142297 9.712843 0.404859 19.36893-0.860799 28.8661-2.803747a1546.131759 1546.131759 0 0 1-11.841193-3.698599c3.884002-1.941055 7.769896-3.884002 11.680385-5.772085-16.54059-5.073986-33.941979-8.799072-51.31499-7.610979z m56.088169 5.423981c-1.428359 4.370212 0.058648 5.853435 4.478048 4.478049 1.407549-4.39859-0.075675-5.881813-4.478048-4.478049z m0.406751 8.524751c-2.994825 3.670221 3.562385 7.285578 6.069108 4.046703 2.864286-3.639951-3.588871-7.312064-6.069108-4.046703z m9.741222 3.91238c3.556709 0.972419 7.119094 1.942947 10.71364 2.915367 0-1.889975 0.026486-5.668032 0.026486-7.529629-3.594547 1.511601-7.183417 3.023203-10.740126 4.614262z m4.534804 6.366132c-2.484021 3.562385 3.774274 7.395307 6.443697 4.504534 2.620235-3.666437-3.747788-7.334767-6.443697-4.504534z" fill="#BB3232" p-id="19111"></path><path d="M951.83965961 442.270186c4.400482-1.403765 5.883705 0.079458 4.478048 4.478049-4.417509 1.375387-5.906408-0.107836-4.478048-4.478049z" fill="#E47070" p-id="19112"></path><path d="M952.24641061 450.794937c2.480237-3.267254 8.933394 0.406751 6.069108 4.046703-2.506723 3.238876-9.063933-0.37459-6.069108-4.046703z" fill="#F1958F" p-id="19113"></path><path d="M966.52243661 461.073449c2.69591-2.832124 9.063933 0.836205 6.443697 4.504534-2.669424 2.890772-8.927718-0.94215-6.443697-4.504534z" fill="#F5B2B3" p-id="19114"></path><path d="M946.15081661 468.979559c2.512399-2.07727 5.045608-4.044811 7.58071-6.069108 6.988555 5.58479 15.327903 10.036352 19.397308 18.426781-7.686654-0.783233-15.5379-0.512696-22.201055 3.91238 0.026486-4.504534 0.134323-8.984474 0.325401-13.460631-2.779152 5.635871-5.611276 12.840099-13.383064 11.599034 2.504831-4.937772 5.125067-9.875544 8.2807-14.408456z" fill="#D96150" p-id="19115"></path><path d="M976.26365761 480.608863c5.153445 5.50344 5.09858 13.383064 5.469386 20.4227 0.276213 10.146081 0.355671 21.205933-5.92911 29.785548l0.104053-2.724288c0.113512-8.874746 0.406751-17.751384 0.48621-26.628023l-0.104053-5.476953a189.498818 189.498818 0 0 1-0.026486-15.378984z" fill="#AC807F" p-id="19116"></path><path d="M887.22484761 489.513879c5.879921 2.317537 5.09858 9.33447 6.55721 14.404672 2.538885-3.829138 5.045608-7.686654 7.633682-11.464711 2.347806 5.367226 7.609087 10.386348 6.12208 16.699506-1.721599 8.905016-4.366428 17.618954-4.663451 26.762345a269.818014 269.818014 0 0 1 10.331483-1.564574c4.481832-0.402968 8.986366-0.484318 13.490901-0.349995 3.399684 1.348901 5.393712 4.504534 7.69233 7.17585-12.196864 1.080256-25.201555 3.076175-36.883832-1.59106-5.53371-1.75376-6.042622-7.877733-7.016933-12.652804a269.222076 269.222076 0 0 1 7.232606 6.205323 406.187542 406.187542 0 0 1-0.272429-12.789018 465.293238 465.293238 0 0 1-6.072891 7.015041C889.41184561 514.819487 887.49538461 502.217763 887.22484761 489.513879z m6.235593 18.074893c-4.266159 3.265362 1.426467 9.145283 4.744801 4.831828 4.44967-3.320226-1.343225-8.905016-4.744801-4.831828z" fill="#CA7B73" p-id="19117"></path><path d="M916.33689161 495.475151c4.882908-4.372104 10.980394 1.0235 16.188702 2.294834a512.383689 512.383689 0 0 0-5.853435 8.819882c1.617546 5.476954 3.025095 11.063636 5.66614 16.162216A760.51902 760.51902 0 0 1 926.69864461 534.001122c-4.506426-0.134323-9.009069-0.052972-13.492793 0.351887-2.294834-4.370212-4.829935-8.579615-7.503143-12.707668 2.137809-1.485115 4.319131-2.939961 6.479644-4.370212-1.808624-7.041527-3.539682-17.779762 4.154539-21.799978z m-1.645924 30.298243c-0.028378 1.214578-0.077567 3.641843-0.104053 4.856422l9.762032 0.321617c-0.08135-1.320523-0.211889-3.963461-0.29324-5.285875-3.129147 0.026486-6.231809 0.05108-9.364739 0.107836z" fill="#C62F28" p-id="19118"></path><path d="M945.36569261 501.735337c1.267551-1.564574 2.565371-3.104553 3.887785-4.64264a1478.342395 1478.342395 0 0 1 3.401577 7.472873l0.215672 0.891069a581.870058 581.870058 0 0 1 12.652804 11.629304 991.073235 991.073235 0 0 1-16.939773 6.472075c-1.244848-5.476954-2.506723-10.952016-3.539683-16.481941-0.402968-1.780246-0.242159-3.615357 0.321618-5.34074z" fill="#E06B6D" p-id="19119"></path><path d="M963.65815061 499.06213c3.157525-2.451859 4.937772-1.780246 5.399387 1.997811-3.157525 2.508615-4.937772 1.833219-5.399387-1.997811z" fill="#F5B2A1" p-id="19120"></path><path d="M893.46044061 507.588772c3.401576-4.073189 9.194472 1.511601 4.744801 4.831828-3.318334 4.313456-9.010961-1.568357-4.744801-4.831828z" fill="#F4CEC0" p-id="19121"></path><path d="M914.69096761 525.773394c3.132931-0.056756 6.235592-0.08135 9.364739-0.107836 0.08135 1.322415 0.211889 3.965352 0.29324 5.285875l-9.762032-0.321617c0.026486-1.214578 0.075675-3.641843 0.104053-4.856422z" fill="#E6776F" p-id="19122"></path><path d="M1556.95319061 558.500794c-0.785125-8.821774-2.317537-18.292458 1.785922-26.57505-0.703774 8.84826-1.29782 17.72679-1.785922 26.57505z" fill="#D15E55" p-id="19123"></path><path d="M1401.73499561 746.149366c12.176053-7.259092 22.666454-18.778668 37.481661-20.292161-1.029175 6.640452-2.215376 13.273336-3.698599 19.830546-3.615357 5.021014-8.689343 8.712046-13.220364 12.898746-11.73714 9.845274-20.312972 22.984287-32.808751 32.023626-15.049799 11.547954-34.373324 14.243864-51.746335 20.638373-19.264878 8.34124-33.480363 25.038854-51.909035 34.539808-16.729776-0.756747-33.215502 2.826449-49.162046 7.548548-14.294944 7.450171-31.728495 6.636668-44.731293 16.835721-4.748585-3.399684-9.686357-8.738532-16.107353-6.339645-11.981191 3.452657-24.493997 4.126161-36.853561 2.484021-8.689343-1.538088-16.890585 2.024297-24.713453 5.342631-2.294834-2.72618-4.373996-5.66614-7.096392-7.989352-10.55094-2.669424-21.559712-1.426467-32.322541-1.780247 8.825558-1.430251 17.698412-2.612668 26.550456-4.046703-7.12477-4.129945-15.114122-6.258295-23.23023-7.230714 0.270537-5.285875-0.348103-10.552832-0.191078-15.836815 8.982583 1.668626 16.215189 7.637465 24.770209 10.416618 6.392617-0.08135 12.630101-1.759436 19.018935-2.186998 14.434942-1.212686 28.682589 3.666437 43.11564 1.698896 12.491995-2.185106 24.957504-5.01723 37.69355-5.202633 20.367836 0.185403 39.878656-6.858016 58.545703-14.276026 4.829935-1.515385 9.603115-3.184011 14.298728-5.126958 23.205636-8.770694 44.38319-22.127272 67.830985-30.407972 11.440117-3.562385 17.531928-15.083852 28.351513-19.720817 11.867679-5.499656 18.969746-17.263283 30.133651-23.820493zM1344.56846261 851.153638c10.119594-4.877232 18.207324-13.24685 28.627725-17.480847 7.877733-2.132134 11.761735 6.470184 15.889788 11.411739 16.296539-0.811611 30.400404 7.74341 45.32534 12.652804 8.819882 3.507521 17.883815-2.832124 26.735858-0.08135 9.067717 2.317537 18.672723 7.096392 27.925843 2.533209 27.384769-11.515792 58.16733-2.073486 85.66372-13.084149-16.160324 8.498265-33.69982 13.734951-50.160951 21.589981-8.791504 3.367523-18.422997 2.911583-27.681792 3.448873-30.220677 1.299712-60.596487 1.725382-90.65068-2.160512 29.543389 20.101083 66.449922 4.723991 98.993811 12.089028 10.573642 2.88888 21.46701 0.454048 32.210921 0.913771-13.299822 13.842788-34.291974 10.55094-51.50796 8.906908-11.061744-1.674302-21.694034 2.050783-32.320649 4.394807-18.939476-2.85861-37.53085-8.526643-56.878969-8.250431 11.580115 6.897746 24.340756 12.138216 37.941385 13.112528 15.99384 1.182417 31.915789 3.076175 47.913413 4.451562l-1.1862 5.586682c4.315348 0.726477 8.634479 1.47944 12.951718 2.29105-16.377889 1.137012-31.374716 8.093405-47.622066 9.765816 3.346712 3.320226 7.768004 5.073986 12.138217 6.63856-19.588387 2.480237-39.30542-0.569452-58.621379-3.778058-6.453157-0.514588-8.770694-7.688546-14.005488-10.390131-12.382267-3.745896-25.606414-4.069405-37.740847-8.73664-4.860205-5.72668-10.660668-11.364443-12.656587-18.807046-0.325401-6.606398 2.480237-12.838207 4.260483-19.079475 6.475859-0.531615 12.978205-1.131336 19.452172-1.721598-4.877232-1.343225-9.765815-2.669424-14.622236-4.022109 4.321023 0.028378 8.662857-0.022702 13.004691-0.1627-3.672113-4.500751-12.783343-6.042622-13.379281-12.032272z" fill="#C8352B" p-id="19124"></path><path d="M847.80969961 771.670647c0.699991 0.944041 2.12835 2.805638 2.82834 3.753463-8.170972 7.228822-6.606398 17.910301-1.780246 26.491808-4.771288-2.12835-8.738532-9.171769-14.484131-6.284781a241.956495 241.956495 0 0 0-2.160511 11.790113c-10.248241-6.290456-19.130555-15.352497-23.311581-26.819101 5.639654 2.425373 10.685263 6.016136 16.215189 8.657182 8.713938-3.989947 14.921152-12.03038 22.69294-17.588684z" fill="#96322B" p-id="19125"></path><path d="M859.70575661 781.788349c4.585885 2.15862 9.224742 4.182917 13.840896 6.262079 0.813503-1.106742 2.427265-3.322118 3.238876-4.42886 10.707965 5.881813 20.312972 13.384956 29.40339 21.504848 8.337456 7.448279 17.724898 13.598737 27.655306 18.721912 8.254214 6.988555 16.678696 13.897652 25.984788 19.452172 22.473483 6.322618 47.080992 11.228228 65.776418 26.041544-10.92553 2.376184-22.312675 3.289956-33.079288-0.406752a1118.352344 1118.352344 0 0 0-6.848557 10.144189c-4.184809-2.563479-8.337456-5.153445-12.493887-7.715032 3.269145-1.942947 6.528832-3.83103 9.794193-5.772085-9.657979-9.769599-23.903734-11.010664-35.640874-17.053285-17.639764-7.232606-30.269866-25.099394-50.562027-25.769115-0.48621-6.074784 1.458629-12.947935-2.722396-18.078678-5.558304-1.774571-11.358767 0.406751-16.939774 0.892961 0.563776-3.318334 1.131336-6.636668 1.695113-9.924732-7.501251-2.915366-14.190891-7.448279-19.102177-13.871166z" fill="#9B312B" p-id="19126"></path><path d="M947.84971261 822.017001c11.114716-4.775071 22.01376-10.119594 32.753887-15.727087 3.969136 2.669424 7.66206 6.123972 12.382267 7.446387 19.533523 4.126161 38.476783 10.952016 56.364381 19.749195 7.202336 1.428359 14.650615 0.751071 21.93241 1.969433-15.889788 3.617249-31.240393-2.024297-46.700727-4.589668-9.529332-2.994825-10.444995 8.549345-13.596846 14.654398 3.745896 0.270537 7.525845 0.541074 11.305795 0.855124 0.586479-3.853732 1.1862-7.68287 1.831327-11.515792 4.691829 4.33805 9.387442 8.715829 14.107649 13.057663-5.336956 0.892961-10.681479 1.776463-15.99384 2.832125-10.17635 0.459724-19.96676-2.425373-28.010977-8.634479-15.592764-6.284781-33.451985-8.225836-46.375326-20.097299z" fill="#9F312B" p-id="19127"></path><path d="M840.44277061 811.356332c7.66206-1.239173 15.430064-0.974311 23.124286-0.297023-2.966447 2.30051-6.042622 4.536696-9.067717 6.772883 17.562198 16.998421 37.825981 30.896073 59.438665 42.222678 18.241378 13.19577 38.792725 23.124285 60.730809 28.255028 13.950624 5.556412 28.222866 10.435536 43.005912 13.248742 8.609885 1.965649 18.3757 2.722396 24.796695 9.546359-11.16958 5.478846-22.636184-1.538088-33.887114-3.184012-20.90891-8.553129-43.408879-12.009569-63.835363-21.830248-26.385863-13.572251-53.641985-25.954518-77.02924-44.511838-10.335267-8.636371-24.066435-16.107352-27.276933-30.222569z" fill="#92342E" p-id="19128"></path><path d="M1010.98697661 845.519659c3.15185-6.106945 4.065621-17.649223 13.596846-14.654398 15.460334 2.563479 30.809048 8.206917 46.700726 4.589668 1.678086-0.162701 5.019122-0.512696 6.691533-0.675396-0.157025 5.283983 0.459724 10.55094 0.191078 15.836815 8.116108 0.974311 16.107352 3.102661 23.23023 7.230714-8.852044 1.434035-17.724898 2.616452-26.550456 4.046703l-1.942947 0.329185-3.289956 0.639451c-4.640749-3.289956-9.41582-7.069905-15.354389-7.168283-10.817693-0.762422-21.120799-4.835611-32.019842-4.941556 5.314253-1.055662 10.656885-1.939163 15.99384-2.832124-4.720207-4.341834-9.41582-8.719613-14.107649-13.057663-0.645127 3.832922-1.244848 7.66206-1.831327 11.515792a922.511989 922.511989 0 0 0-11.307687-0.858908z" fill="#B1322C" p-id="19129"></path><path d="M1069.61024761 862.860509l3.289956-0.639451a244.896455 244.896455 0 0 0-5.475062 11.489306c15.539792 5.179931 32.479566 4.990744 48.617187 3.371306 0 1.645924 0 4.969934-0.026486 6.610182-11.16958-0.109728-22.420511-0.64891-33.431174 1.678085-7.82476 1.615654-15.218175-2.056459-22.473484-4.266159-10.497968-3.643735-21.690251-4.184809-32.430377-6.772882a78.128415 78.128415 0 0 1 6.069108-5.910191c8.770694 0.48621 16.355187 6.691532 25.228041 6.258294 3.887786-3.611573 7.071797-7.904219 10.632291-11.81849z" fill="#9F322B" p-id="19130"></path><path d="M1320.25986861 910.053121c6.178836 4.207511 13.220364 8.116108 19.826762 2.2097 11.167689 3.806436 22.153758 8.125567 33.164421 12.353889 11.001204 4.162107 21.120799 10.605804 32.717941 13.171175 23.478064 5.041824 47.652336-0.056756 71.257156 3.373198-16.835721 6.984771-35.368446 7.552331-53.310909 6.226133-28.786642 2.46321-57.843821-5.715329-83.124835-18.937584a121.949721 121.949721 0 0 0-22.100785-14.24008c0.384049-1.05377 1.188092-3.132931 1.570249-4.156431z" fill="#BE352C" p-id="19131"></path><path d="M1310.03243761 963.422678c4.882908-5.997217 11.894165-9.368523 19.667845-9.368524 17.346525 3.079959 34.747914 6.451265 52.446326 5.671816l-1.133228 1.505926c-2.073486 2.538885-4.182917 5.045608-6.258295 7.558007 19.911896-1.434035 39.79163-4.400482 59.786769-3.940758-8.986366 5.261281-19.446497 6.502345-29.380689 9.009069-30.103381 6.66883-61.459178 10.335267-92.188767 6.34532 5.208309-1.0235 10.388239-2.349698 15.543576-3.643735-6.154242-4.39859-12.333078-8.770694-18.483537-13.137121z" fill="#BA332C" p-id="19132"></path><path d="M1382.14850061 959.72597c8.581507-4.671019 3.373198 9.307984-1.133228 1.505926l1.133228-1.505926z" fill="#A59485" p-id="19133"></path><path d="M1367.20464661 991.100686c18.644345-0.109728 36.825183-4.644532 55.227369-7.098284-9.173661 6.80126-19.993246 10.876341-31.107962 13.139014-8.012055 1.460521-15.133041 6.665046-23.502659 6.178836-16.968151-1.099174-34.585213 0.378373-50.696349-6.097486 6.962069-2.911583 14.086839-5.418306 21.502956-6.933691 9.525548 0 19.020827 1.108634 28.576645 0.811611z" fill="#B6352C" p-id="19134"></path><path d="M1320.90877861 1015.734681c50.393651 0.488102 98.853813-15.002502 145.906428-31.352013-25.43993 14.731965-53.475501 24.015355-80.674867 34.887911-20.825667 9.36474-44.515621 3.023203-65.231561-3.535898z" fill="#973028" p-id="19135"></path></svg>