<svg t="1612852378210" class="icon" viewBox="0 0 1024 1024" version="1.1" xmlns="http://www.w3.org/2000/svg" p-id="15596" width="200" height="200"><path d="M919.083997 692.511213c-74.984808-67.676355-107.751073-20.321838-170.401971-104.681154-81.234139-109.542882 8.585539-190.886515-83.244936-289.834084 0 0-168.662351-169.586396-357.971951 58.358129-118.40062 142.580323-63.84612 338.384847 99.981109 473.060129C611.753423 997.61405 847.195713 980.797036 924.680459 887.444904 974.997448 826.831408 961.84694 731.116463 919.083997 692.511213z" p-id="15597" fill="#f4ea2a"></path><path d="M122.502543 512.00307c-30.754444 0-55.641251 24.913413-55.641251 55.641251 0 30.728862 24.886807 55.642275 55.641251 55.642275s55.641251-24.913413 55.641251-55.642275C178.143795 536.916483 153.256988 512.00307 122.502543 512.00307z" p-id="15598" fill="#f4ea2a"></path><path d="M122.502543 345.078293c-30.754444 0-55.641251 24.914436-55.641251 55.641251 0 30.727839 24.886807 55.641251 55.641251 55.641251s55.641251-24.913413 55.641251-55.641251C178.143795 369.992729 153.256988 345.078293 122.502543 345.078293z" p-id="15599" fill="#f4ea2a"></path><path d="M315.508325 246.837828c0-37.926798-30.700209-68.682265-68.682265-68.682265s-68.682265 30.755468-68.682265 68.682265 30.700209 68.682265 68.682265 68.682265S315.508325 284.764626 315.508325 246.837828z" p-id="15600" fill="#f4ea2a"></path><path d="M428.529425 233.79579c46.077432 0 83.460854-37.356816 83.460854-83.461877 0-46.105061-37.383422-83.461877-83.460854-83.461877s-83.4629 37.356816-83.4629 83.461877C345.066525 196.439998 382.451994 233.79579 428.529425 233.79579z" p-id="15601" fill="#f4ea2a"></path></svg>