<svg t="1612620594235" class="icon" viewBox="0 0 1024 1024" version="1.1" xmlns="http://www.w3.org/2000/svg" p-id="21017" width="200" height="200"><path d="M928.545219 296.798759L521.916329 164.459533c-28.259235-6.525221-42.580319-3.616363-59.85736 2.059033-2.276097 0.747436-9.790391 3.22831-15.391044 5.504407-1.281904 0.521158-365.127746 160.51655-365.127746 160.516551-6.416689 2.839234-11.549426 7.972995-14.334394 14.38866-4.723183 10.812229-4.942294 22.825476-0.627642 33.829171 4.341274 10.976051 12.668533 19.630953 23.972227 24.517958l141.157951 58.155663v257.471323c0 3.959365 0.819108 7.835794 2.457324 11.439871 0 0 7.508151 16.682164 9.993121 21.35108 35.275921 65.691459 142.359992 109.813749 266.39858 109.813749 120.599357 0 227.436671-43.740381 265.770937-108.748908 2.293503-3.849809 5.930344-10.70984 9.801654-17.966116 2.150159-4.030013 3.248788-8.518726 3.248789-13.105732l0.153582-280.124786 47.435584-23.16131v206.52279c0 15.453501 12.504711 27.958213 27.958212 27.958212s27.958213-12.504711 27.958213-27.958212v-233.824692l47.644456-23.262675a27.962308 27.962308 0 0 0 13.379109-13.951461c9.69517-22.30739-0.543683-48.382677-25.362663-59.08535z m-465.13984-71.398596c6.307134-1.747772 17.995808-8.51975 31.889932-8.546371 11.28936-0.021502 33.250676 8.927256 37.073864 9.691075l344.573247 112.135921-356.309021 174.006239c-10.020766 4.313629-11.057962 3.248788-18.293759 1.774393l-359.148255-147.984193 320.213992-141.077064zM733.463324 716.697202c-1.911594 3.604076-4.184619 7.777433-5.242293 9.555922-23.986562 40.31958-106.264962 81.336426-217.662662 81.336426-114.210312 0-195.682916-40.436303-217.089286-80.271586-1.201017-2.265858-3.849809-8.027261-5.843313-12.4228V486.467372l195.656294 80.60742c1.392484 0.573376 2.839234 1.037196 4.287008 1.364839 8.628282 2.020126 15.863055 2.94879 22.77121 2.948789 13.515286 0 23.972227-3.713632 33.61006-7.917705L733.463324 470.939127v245.758075zM864.928152 701.817076c-15.453501 0-27.958213 12.504711-27.958213 27.958213v55.180252c0 15.453501 12.504711 27.958213 27.958213 27.958213s27.958213-12.504711 27.958213-27.958213v-55.180252c0.001024-15.453501-12.503688-27.958213-27.958213-27.958213z" fill="#3E3A39" p-id="21018"></path></svg>