<svg t="1612623652291" class="icon" viewBox="0 0 1024 1024" version="1.1" xmlns="http://www.w3.org/2000/svg" p-id="21484" width="200" height="200"><path d="M960.053977 1024l-0.938726-7.791427C933.074988 800.883576 732.506765 625.679733 512 625.679733c-220.506765 0-421.074988 175.185068-447.096476 390.52884l-0.938726 7.791427L5.087896 1024l1.051373-9.819075C26.509626 824.31418 159.395695 653.184408 336.814932 588.393532l5.407062-1.990099-4.843827-3.116571c-90.699718-58.332441-144.84544-155.509369-144.84544-259.989586C192.532727 151.078582 341.827729 0 512 0c170.191045 0 319.467273 151.078582 319.467273 323.334825 0 104.461443-54.145723 201.63837-144.84544 259.989586l-4.843827 3.116571 5.407062 1.990099c177.419237 64.809651 310.305306 235.920648 330.675663 425.787393L1018.912104 1024 960.053977 1024zM512 59.646658c-131.515529 0-260.590371 130.614352-260.590371 263.669392 0 138.912691 137.5797 242.717025 260.590371 242.717025 123.010671 0 260.590371-103.78556 260.590371-242.717025C772.590371 190.26101 643.515529 59.646658 512 59.646658z" p-id="21485" fill="#1296db"></path></svg>