<svg t="1612624709911" class="icon" viewBox="0 0 1024 1024" version="1.1" xmlns="http://www.w3.org/2000/svg" p-id="24152" width="200" height="200"><path d="M795.729 822.078c-37.882 0-68.7 30.809-68.7 68.677s30.818 68.677 68.7 68.677c37.9 0 68.733-30.808 68.733-68.677s-30.832-68.677-68.733-68.677zM353.844 822.078c-37.869 0-68.678 30.809-68.678 68.677s30.808 68.677 68.678 68.677c37.89 0 68.715-30.808 68.715-68.677s-30.826-68.677-68.715-68.677zM934.85 189.34c-17.2-19.406-40.84-30.094-66.56-30.094H321.797c-20.478 0-37.138 16.65-37.138 37.116 0 20.465 16.66 37.115 37.138 37.115h546.491c4.39 0 7.976 1.656 10.971 5.064 5.095 5.789 7.695 15.638 6.641 25.123l-49.677 284.16-0.035 0.227c-1.47 12.016-12.488 21.513-25.08 21.617h-0.148l-428.536 31.575c-9.936 0.737-18.934 5.264-25.323 12.727-6.494 7.501-9.663 17.089-8.929 26.976 1.378 19.296 17.614 34.415 36.964 34.415h0.073l2.565-0.082 425.94-31.457c23.15-0.121 45.776-8.96 63.746-24.903 17.872-15.957 29.288-37.355 32.152-60.261l49.72-284.224 0.035-0.227c3.907-31.955-5.03-62.887-24.518-84.867z" fill="#b1b1b1" p-id="24153"></path><path d="M858.38 727.382H345.69c-10.607 0-21.514-10.46-22.896-22.047L269.04 326.768l-30.456-175.695c-6.014-48.514-48.828-86.505-97.52-86.505h-40.218c-20.466 0-37.116 16.642-37.116 37.097 0 20.467 16.65 37.117 37.116 37.117h40.217c11.13 0 22.596 10.936 24.053 22.943l30.53 176.537 53.516 376.595c5.897 48.641 48.295 86.74 96.527 86.74l4.467-0.017h508.223c20.456 0 37.098-16.624 37.098-37.059 0.002-20.478-16.64-37.139-37.096-37.139z" fill="#b1b1b1" p-id="24154"></path></svg>