<svg t="1610871259957" class="icon" viewBox="0 0 1024 1024" version="1.1" xmlns="http://www.w3.org/2000/svg" p-id="2708" width="200" height="200"><path d="M512 223.361137c16.954137 0 30.699186-13.745049 30.699186-30.699186L542.699186 94.429673c0-16.954137-13.745049-30.699186-30.699186-30.699186s-30.699186 13.745049-30.699186 30.699186l0 98.232279C481.300814 209.617112 495.04484 223.361137 512 223.361137z" p-id="2709"></path><path d="M264.485767 307.901579c5.994528 5.995551 13.850449 8.991792 21.707394 8.991792 7.855922 0 15.71389-2.998287 21.707394-8.991792 11.989055-11.989055 11.989055-31.426757 0-43.414789l-69.459978-69.461001c-11.988032-11.989055-31.426757-11.989055-43.414789 0-11.989055 11.989055-11.989055 31.426757 0 43.414789L264.485767 307.901579z" p-id="2710"></path><path d="M94.429673 542.698163l98.232279 0c16.954137 0 30.699186-13.744026 30.699186-30.699186s-13.745049-30.699186-30.699186-30.699186l-98.232279 0c-16.954137 0-30.699186 13.745049-30.699186 30.699186S77.475536 542.698163 94.429673 542.698163z" p-id="2711"></path><path d="M800.63784 512c0 16.954137 13.745049 30.699186 30.699186 30.699186l98.232279 0c16.954137 0 30.699186-13.744026 30.699186-30.699186s-13.745049-30.699186-30.699186-30.699186l-98.232279 0C814.382888 481.300814 800.63784 495.04484 800.63784 512z" p-id="2712"></path><path d="M737.805816 316.89337c7.856945 0 15.712867-2.997264 21.707394-8.991792l69.461001-69.461001c11.989055-11.989055 11.989055-31.426757 0-43.415812-11.988032-11.989055-31.426757-11.989055-43.414789 0l-69.461001 69.461001c-11.989055 11.989055-11.989055 31.426757 0 43.415812C722.091926 313.896106 729.948871 316.89337 737.805816 316.89337z" p-id="2713"></path><path d="M824.811402 636.81368c-4.625344-50.765197-24.583908-98.751095-57.501622-137.949862-3.197832-63.572898-29.557176-122.878608-74.978668-168.08009-48.234561-47.999201-112.277156-74.43427-180.329065-74.43427-68.288293 0-132.488477 26.592658-180.774203 74.878384-48.285726 48.28675-74.878384 112.486934-74.878384 180.774203 0 6.978948 0.300852 13.957897 0.865717 20.906146-17.141402 6.476505-32.683377 16.902972-45.360094 30.66951-19.584034 21.267373-30.651091 48.705282-31.338752 77.54512-28.018124 9.185196-53.315276 25.775037-73.081459 48.26219-26.650987 30.318516-41.328267 69.264527-41.328267 109.664655 0 91.629907 74.610278 166.175717 166.317956 166.175717l559.799656 0c43.736107 0 85.134982-17.198707 116.570949-48.425919 31.658024-31.448246 49.093115-73.135694 49.093115-117.380384 0-43.585681-16.817014-84.754313-47.351448-115.923196C886.962927 659.431817 857.222579 643.363863 824.811402 636.81368zM512.00307 317.748854c51.708686 0 100.369965 20.085454 137.019677 56.55711 18.577101 18.48705 32.961716 40.08188 42.660612 63.612807-4.607948-2.412956-9.302877-4.689812-14.08274-6.828522-32.242332-14.422478-66.62849-21.735024-102.204753-21.735024-92.582605 0-176.346357 50.889017-219.72226 130.127709-11.594059-6.268774-24.205285-10.57587-37.370119-12.701277-0.370437-4.910846-0.555655-9.843182-0.555655-14.777565C317.748854 404.89054 404.89054 317.748854 512.00307 317.748854zM865.523639 873.241414c-19.854187 19.723204-45.887097 30.586622-73.299423 30.586622l-559.799656 0c-57.852616 0-104.919585-47.003524-104.919585-104.777345 0-52.106752 38.842657-96.722902 90.349751-103.780645 8.607028-1.179872 16.311501-5.950526 21.202904-13.130042 4.891404-7.18054 6.512321-16.095583 4.459568-24.537859-1.086751-4.470825-1.638313-9.051143-1.638313-13.613042 0-14.431687 5.377474-28.216645 15.140839-38.820144 9.713222-10.54824 22.880103-17.042141 37.07643-18.285458 0.022513-0.002047 0.045025-0.00614 0.068562-0.008186 0.016373-0.001023 0.031722-0.002047 0.048095-0.00307 1.598404-0.146333 3.281743-0.220011 5.002944-0.220011 17.323551 0 33.540907 7.711636 44.493354 21.158902 5.888104 7.227612 14.665001 11.311627 23.799032 11.311627 1.789763 0 3.593851-0.156566 5.392824-0.477884 10.975982-1.957585 20.027126-9.711176 23.64656-20.25737 26.200732-76.342736 98.074689-127.634936 178.847318-127.634936 26.879184 0 52.831252 5.51255 77.134775 16.383132 23.502273 10.512425 44.313252 25.480324 61.853743 44.48926 0.00307 0.004093 0.007163 0.007163 0.010233 0.010233 32.279171 34.982746 50.057069 80.465636 50.057069 128.070864 0 0.937348 0.021489 1.852184 0.045025 2.761903 0.010233 0.38374 0.027629 0.76441 0.021489 1.152243-0.339738 16.871249 13.000082 30.853705 29.868261 31.308053 27.41642 0.73678 53.090149 11.935843 72.290443 31.534204 19.22383 19.62292 29.811979 45.532009 29.811979 72.955592C896.489908 827.187519 885.492436 853.404624 865.523639 873.241414z" p-id="2714"></path></svg>