<svg t="1612624373746" class="icon" viewBox="0 0 1024 1024" version="1.1" xmlns="http://www.w3.org/2000/svg" p-id="23081" width="200" height="200"><path d="M512 911c-80 0-157.1-23.6-223.1-68.2-9.6-6.5-12.1-19.5-5.7-29.1 6.5-9.6 19.6-12.1 29.2-5.6 59 39.9 128.1 61 199.6 61 196.9 0 357-160.1 357-357 0-72-21.3-141.4-61.7-200.7-6.5-9.6-4-22.7 5.5-29.2 9.6-6.5 22.7-4 29.2 5.5 45.1 66.3 69 143.9 69 224.3 0 220-179 399-399 399zM175.6 705.6c-7.6 0-15-4.2-18.7-11.4-29.1-56.7-43.9-118-43.9-182.2 0-220 179-399 399-399 65.3 0 130.1 16.1 187.4 46.6 10.2 5.5 14.1 18.2 8.7 28.4-5.5 10.2-18.1 14.1-28.4 8.7C628.4 169.4 570.4 155 512 155c-196.9 0-357 160.1-357 357 0 57.4 13.2 112.3 39.3 163 5.3 10.3 1.2 23-9.1 28.3-3 1.6-6.3 2.3-9.6 2.3z" p-id="23082" fill="#1296db"></path><path d="M175.7 897.2c-14.8 0-26.6-4.5-35.5-13.4-32.1-32.1-17.3-75.1 21.2-143.2 5.7-10.1 18.5-13.6 28.6-7.9 10.1 5.7 13.6 18.5 7.9 28.6-43.6 77.2-33.5 87.3-28 92.8 0.2 0.1 21.7 12.2 112.1-48.2 75.4-50.4 171.4-133.1 277.5-239.2 257.1-257.2 306-380.9 294.7-396.8-11.2-11.2-45.9 0.7-97.7 33.6-9.8 6.2-22.8 3.3-29-6.4-6.2-9.8-3.3-22.8 6.4-29 53.7-34.2 113.5-64.2 150-27.8 27.5 27.5 12.6 81.1-46.7 168.8-53.8 79.5-139.6 178.9-248 287.4-108 108-206.2 192.5-283.8 244.4-56.5 37.6-99.4 56.3-129.7 56.3z" p-id="23083" fill="#1296db"></path></svg>