<svg t="1610001221693" class="icon" viewBox="0 0 1024 1024" version="1.1" xmlns="http://www.w3.org/2000/svg" p-id="20289" data-spm-anchor-id="a313x.7781069.0.i22" width="200" height="200"><path d="M960 678.272v26.752l-2.112 11.712c-0.384 0.96-0.832 1.92-1.088 2.944a120.512 120.512 0 0 1-28.864 55.168c-24.896 27.136-56.256 40.192-92.864 41.344-8.32 0.256-16.704 0.512-24.96 1.536a18.752 18.752 0 0 1-13.632-3.008l-13.184-9.088c-7.68-5.248-15.488-5.888-23.424-0.64-4.864 3.264-9.408 7.104-14.464 9.984-5.184 2.944-10.624 6.464-16.32 7.232-12.672 1.664-25.472 1.728-38.272 2.496l-20.736 1.344-44.672 2.752c-0.64-1.024-1.024-2.368-1.92-3.072-8.96-7.552-17.664-15.488-27.136-22.336-13.12-9.408-26.944-17.856-40.448-26.752l91.072-5.696 172.608-10.56c23.36-1.472 42.944-10.56 57.152-29.76a59.52 59.52 0 0 0 14.656-37.568c-0.128-18.816-1.856-37.632-3.328-56.384-1.408-18.048-3.328-36.096-4.992-54.08l-3.52-38.208-4.992-53.568-4.544-50.944-5.056-53.056c-1.6-17.152-2.944-34.304-4.544-51.456-1.984-21.056-4.672-42.048-6.016-63.104-2.56-40.064-37.888-74.24-77.952-73.984-16 0.064-31.936 1.344-47.936 2.176-7.616 0.384-15.232 1.152-22.848 1.792 4.416-4.224 8.64-8.704 13.312-12.544 12.992-10.752 27.136-18.496 44.992-17.344a22.272 22.272 0 0 0 20.288-8.64c4.416-6.272 7.552-13.44 11.328-20.224 9.28 1.472 18.752 2.176 27.84 4.608 50.624 13.312 91.52 59.072 96.96 109.44 4.928 45.632 8.704 91.456 12.928 137.152l11.072 121.28c4.16 45.76 8.384 91.456 12.672 137.216 0.64 8.32 1.92 16.704 2.944 25.088z m-130.816 108.992l0.704 2.112c6.336 1.408 12.672 3.328 19.072 4.032 13.312 1.536 25.024-1.856 33.792-12.8 4.032-4.992 3.136-8.32-3.2-9.28a61.12 61.12 0 0 0-42.304 8.768c-3.008 1.856-5.376 4.736-8.064 7.168z" fill="#515151" p-id="20290" data-spm-anchor-id="a313x.7781069.0.i10" class="selected"></path><path d="M625.408 828.864l44.672-2.752 20.736-1.344c12.736-0.768 25.6-0.832 38.272-2.496 5.696-0.768 11.136-4.288 16.32-7.232 5.056-2.88 9.6-6.72 14.464-9.984 7.872-5.248 15.744-4.608 23.424 0.64l13.184 9.088a18.752 18.752 0 0 0 13.632 3.008c8.256-1.088 16.64-1.28 24.96-1.536 36.608-1.216 67.968-14.208 92.864-41.344 14.464-15.744 24-34.304 28.864-55.168 0.256-1.024 0.704-1.984 1.088-2.944-0.448 8-0.128 16.064-1.536 23.872a127.232 127.232 0 0 1-118.656 105.408l-159.424 9.536-178.112 10.624-224.512 13.312c-5.376 0.32-10.688 1.28-16.064 1.92h-34.24a1229.184 1229.184 0 0 0-14.848-3.2 136.32 136.32 0 0 1-105.984-114.368c-2.944-23.296-4.544-46.784-6.72-70.208L87.488 583.04l-9.984-109.632c-3.392-37.44-6.848-74.816-10.368-112.256-0.768-8-2.112-16-3.136-24v-30.976c0.384-0.896 0.896-1.792 1.088-2.752 2.496-10.112 3.904-20.736 7.68-30.336 18.752-47.744 51.456-79.616 103.68-88.32-1.088 0.832-2.112 1.984-3.328 2.496a121.28 121.28 0 0 0-44.288 30.976 120.96 120.96 0 0 0-32.448 93.056c1.856 28.864 5.44 57.6 8.128 86.464 2.56 27.008 5.056 54.08 7.488 81.088l7.68 87.552c0.512 5.632 1.28 11.2 1.92 16.832 1.472 15.488 3.008 30.976 4.352 46.528 1.92 21.696 3.584 43.392 5.568 65.024 0.384 4.544 1.408 8.96 2.112 13.504l0.064 3.072v4.48c0.832 7.744 1.28 15.552 2.56 23.232 4.992 30.464 19.328 55.936 42.112 76.544 25.728 23.296 56 35.136 90.88 34.688l35.456-2.048 41.6-2.176c3.328-0.32 6.72-0.704 10.048-0.896l70.144-4.288 74.944-4.48 50.176-3.072 73.792-4.48z" fill="#515151" p-id="20291" data-spm-anchor-id="a313x.7781069.0.i12" class="selected"></path><path d="M795.328 142.592l0.128 0.896c-3.712 6.784-6.848 13.952-11.328 20.224-4.736 6.72-12.416 9.152-20.288 8.64-17.792-1.152-31.936 6.592-44.992 17.344-4.672 3.904-8.896 8.384-13.312 12.544-4.608 0.128-9.216 0.192-13.824 0.448l-45.056 2.816c4.928-8.192 9.536-16.576 14.784-24.576 6.976-10.688 14.4-21.056 21.696-31.552 25.152-1.6 50.24-3.072 75.328-4.736 6.592-0.448 13.184-1.344 19.712-2.048h17.152z" fill="#515151" p-id="20292" data-spm-anchor-id="a313x.7781069.0.i15" class="selected"></path><path d="M876.672 730.688c-14.208 19.264-33.792 28.288-57.152 29.76-57.536 3.648-115.072 7.04-172.608 10.56l-91.072 5.696-31.936 1.792-167.68 9.984c-7.936 0.512-15.936 1.28-23.872 1.92-16.512 0.832-33.088 1.984-49.6 2.368a78.72 78.72 0 0 1-77.056-54.208c-3.776-12.032-4.608-25.152-5.888-37.824-2.944-28.672-5.312-57.408-8-86.144-2.944-33.28-6.016-66.624-9.152-99.904-1.216-13.312-2.624-26.56-3.968-39.808l-9.152-101.312c-1.856-20.672-3.968-41.344-5.504-62.016a71.808 71.808 0 0 1 22.912-60.032l1.408-0.768c0.192-0.064 0.448-0.128 0.576-0.256 4.224-0.64 8.384-1.664 12.608-1.92l107.072-6.592 59.136-3.456 96.448-6.08 79.424-4.608 102.848-6.272c12.992-0.768 25.92-1.664 38.912-2.368 25.024-1.408 50.112-3.712 75.136-3.904a79.808 79.808 0 0 1 77.44 64.384c3.008 16.576 3.84 33.536 5.44 50.368 1.984 20.864 3.776 41.792 5.696 62.72l7.168 77.056 5.696 62.208 7.104 75.968c2.048 21.632 4.416 43.2 5.952 64.832 1.472 19.2 5.888 38.4 1.664 57.856z m-37.504-177.536c4.864-7.744 4.992-14.976-1.152-21.376a80.64 80.64 0 0 0-40-24 14.976 14.976 0 0 0-16.704 6.4c-0.704 0.768-1.6 1.408-2.176 2.304a28369.28 28369.28 0 0 0-66.688 103.04 32.384 32.384 0 0 0-4.288 24.64 35.072 35.072 0 0 0 27.648 27.776 34.944 34.944 0 0 0 36.928-15.616c21.76-33.344 43.328-66.88 64.96-100.288 0.704-0.896 1.024-1.92 1.472-2.88z m-129.088-21.184l-0.128-1.92c-1.792-0.896-3.584-2.496-5.376-2.56-7.424-0.384-15.04-1.536-22.208-0.256-18.752 3.392-37.248 7.936-55.808 12.032a1076.48 1076.48 0 0 0-167.872 50.112 457.856 457.856 0 0 0-139.776 87.744c-2.176 1.984-4.16 4.288-6.272 6.4l1.152 1.344 22.144-12.416c16.512-9.024 32.576-19.072 49.728-26.624 40.32-17.856 80.896-34.944 121.728-51.52 45.888-18.688 92.16-36.672 140.352-48.768 16.704-4.16 33.92-6.272 50.816-9.536 3.968-0.832 7.68-2.624 11.52-4.032z m63.936-96.96c1.408 7.168 3.008 14.592 4.416 22.08 0.704 3.648 2.112 5.76 6.336 5.312 6.272-0.64 9.088-3.84 8.896-12.032-0.192-6.208-1.152-12.416-1.728-18.56a8.448 8.448 0 0 1 4.48-8.896c3.648-2.176 7.104-4.736 10.368-7.488a24.576 24.576 0 0 0 8.768-25.792c-2.112-9.408-11.136-17.28-19.904-17.28-10.304 0-16.384 5.248-18.496 16.896-1.024 5.568-0.64 11.392-1.6 16.96-0.512 2.944-1.664 7.04-3.776 8.192-10.24 5.376-20.864 9.984-32.64 10.816-6.08 0.448-8.64-1.728-7.744-7.744a49.088 49.088 0 0 1 4.608-14.592c5.312-10.688 11.456-20.864 16.704-31.552a41.856 41.856 0 0 0 3.456-13.76c0.384-3.392-0.192-7.296-4.544-8.704-4.16-1.344-8.064-0.448-10.624 2.88a45.312 45.312 0 0 0-7.424 12.224c-6.336 17.536-12.352 35.2-17.984 52.992a18.56 18.56 0 0 0 13.568 23.488 33.92 33.92 0 0 0 12.672 0.832c10.56-1.728 21.12-4.096 32.192-6.272z m-359.296 49.344l17.024-33.216c2.24-4.416 0.64-10.624-3.136-12.736-3.392-1.92-8.96-0.256-11.712 3.712a21.76 21.76 0 0 0-2.688 5.12c-2.688 6.592-5.056 13.312-7.808 19.84-3.264 7.872-6.912 8.896-13.184 3.52-6.464-5.568-12.416-11.712-18.944-17.28a69.312 69.312 0 0 0-13.504-9.28c-2.176-1.088-6.72-0.768-8.192 0.832a11.072 11.072 0 0 0-2.304 9.024 19.712 19.712 0 0 0 5.952 9.856c9.6 8.192 19.52 15.936 29.632 23.424 2.944 2.176 3.712 3.392 1.6 6.592-8.448 12.992-16.576 26.176-24.768 39.296-2.816 4.416-1.664 11.136 2.24 13.696 3.008 1.984 7.616 0.256 10.944-4.096l3.712-5.248 26.24-37.056 5.12 2.432c10.752 5.056 21.44 10.368 32.384 15.04 2.496 1.088 6.976 0.96 8.768-0.64 1.792-1.6 2.304-6.016 1.472-8.576a13.76 13.76 0 0 0-6.208-6.592c-10.624-6.08-21.44-11.648-32.64-17.664zM512 497.92l-1.728-1.088c0.64-3.52 0.768-7.232 2.112-10.432 5.76-13.76 11.84-27.392 17.984-41.024 8.32-18.368 3.52-33.088-15.232-40.256-10.944-4.224-23.04-5.312-34.688-7.68-4.992-1.088-8.384 1.92-9.408 5.952-1.088 4.16 2.368 6.976 6.144 8.128 4.032 1.216 8.32 1.792 12.48 2.688 6.784 1.408 13.76 2.112 20.16 4.48 7.36 2.752 11.904 13.12 9.28 18.56l-32.448 67.776c-1.344 2.88-2.88 5.952-3.072 9.024a12.48 12.48 0 0 0 2.368 7.936c2.112 2.688 5.44 2.688 8.704 0.896a62.208 62.208 0 0 1 9.216-4.096c15.68-5.824 31.424-11.392 46.976-17.408 3.84-1.536 8.256-3.84 7.04-9.344-0.832-3.712-5.632-5.056-11.52-3.712l-1.536 0.448L512 497.92z m-222.208 44.288c0.896-4.864 0.896-8.64 2.24-11.84 6.08-14.4 12.928-28.48 18.624-43.008a40.576 40.576 0 0 0 2.624-18.048c-1.024-11.008-9.28-17.408-18.752-20.544-10.688-3.584-22.016-5.248-33.152-7.36-4.864-0.96-9.728 1.92-10.752 5.568-0.896 3.328 2.368 7.552 7.68 8.768 6.208 1.408 12.672 1.92 18.88 3.392 5.12 1.216 10.496 2.432 14.976 4.992 6.592 3.776 8.768 12.544 5.632 19.2-10.304 21.632-20.736 43.2-30.976 64.896a43.84 43.84 0 0 0-3.776 11.584c-0.832 5.632 4.928 9.408 10.24 7.424l46.272-17.536c4.288-1.664 8.704-3.2 12.736-5.376 3.2-1.728 7.04-4.096 5.12-8.704-1.728-4.16-5.76-4.48-9.6-3.648-4.608 0.96-9.216 2.368-13.824 3.648l-24.192 6.592z m306.752-67.456c6.528-1.664 13.12-3.136 19.584-4.992 19.968-5.696 39.872-11.584 59.84-17.28 4.672-1.344 6.976-3.712 6.016-8.832-1.152-5.952-3.712-7.68-11.712-5.44-25.472 7.04-50.816 14.464-76.288 21.568-4.48 1.216-6.336 3.968-5.824 8.128 0.512 4.608 3.52 6.72 8.384 6.848z m71.552-76.096c0-8.128-2.624-11.456-7.424-10.624-25.216 4.288-50.432 8.64-75.648 13.184-5.696 1.024-7.552 3.776-6.784 8.32 0.832 4.736 5.76 8.704 10.304 7.808 25.088-4.992 50.176-9.984 75.2-15.232 1.984-0.448 3.584-2.816 4.352-3.456z" fill="#e6e6e6" p-id="20293" data-spm-anchor-id="a313x.7781069.0.i5" class=""></path><path d="M876.672 730.688c4.224-19.392-0.192-38.656-1.6-57.856-1.536-21.632-3.968-43.2-5.952-64.832l-7.104-75.968-5.696-62.208-7.168-77.056c-1.92-20.928-3.712-41.792-5.696-62.72-1.6-16.832-2.432-33.792-5.44-50.368a79.872 79.872 0 0 0-77.44-64.384c-25.088 0.192-50.112 2.496-75.136 3.904-12.992 0.704-25.92 1.6-38.912 2.368l-102.848 6.336c-26.496 1.536-52.992 2.944-79.424 4.544l-96.448 6.08c-19.712 1.28-39.424 2.304-59.136 3.52-35.712 2.112-71.424 4.288-107.072 6.528-4.224 0.256-8.384 1.28-12.608 1.92a60.672 60.672 0 0 1 40-18.944c20.224-2.24 40.64-3.072 60.992-4.352l72.32-4.48 18.048-0.96c14.848-0.768 29.76-1.408 44.608-2.304 6.144-0.384 12.288-1.28 18.432-1.92l45.12-2.368c4.224-0.32 8.448-0.704 12.736-0.896l46.208-2.432 99.264-6.272 45.056-2.816c4.608-0.256 9.216-0.32 13.824-0.448 7.616-0.576 15.232-1.344 22.848-1.792 16-0.896 31.936-2.112 47.936-2.176 40.064-0.192 75.392 33.92 77.952 73.984 1.344 21.056 4.032 42.048 6.016 63.104 1.6 17.152 3.008 34.304 4.544 51.456 1.6 17.664 3.392 35.328 5.056 53.056 1.6 16.96 3.008 33.984 4.544 50.944l4.992 53.568 3.52 38.208c1.664 18.048 3.584 36.032 4.992 54.08 1.472 18.752 3.2 37.568 3.328 56.384a59.648 59.648 0 0 1-14.656 37.568z" fill="#2c2c20" p-id="20294"></path><path d="M332.416 790.464c7.936-0.64 15.872-1.408 23.872-1.92 55.872-3.392 111.744-6.72 167.68-9.984l31.936-1.792c13.504 8.896 27.328 17.344 40.448 26.752 9.536 6.784 18.176 14.784 27.136 22.336 0.896 0.768 1.28 2.048 1.92 3.072l-73.856 4.416c-2.304-1.856-4.48-3.968-6.976-5.568a212.864 212.864 0 0 0-85.952-31.168 179.84 179.84 0 0 0-52.416 0.96 175.296 175.296 0 0 0-64.128 23.68c-13.056 8.064-25.024 17.92-37.44 27.008l-35.456 2.048c0.256-0.64 0.32-1.472 0.832-1.92 12.992-13.248 25.664-26.816 39.104-39.552 7.104-6.848 15.488-12.352 23.296-18.368z" fill="#515151" p-id="20295" data-spm-anchor-id="a313x.7781069.0.i21" class="selected"></path><path d="M829.184 787.264c2.688-2.432 5.12-5.312 8.128-7.168a61.12 61.12 0 0 1 42.304-8.768c6.336 0.96 7.168 4.288 3.2 9.28-8.704 10.88-20.48 14.336-33.792 12.8-6.464-0.768-12.736-2.624-19.072-4.032a14.016 14.016 0 0 1-0.768-2.112z" fill="#2c2c20" p-id="20296"></path><path d="M362.304 222.72c-24.128 1.472-48.192 2.88-72.32 4.48-20.352 1.28-40.768 2.112-61.056 4.352a60.8 60.8 0 0 0-40 18.944l-0.576 0.256-1.408 0.768a71.808 71.808 0 0 0-22.912 60.032c1.536 20.672 3.648 41.344 5.504 62.016-13.248 19.584-21.12 41.536-27.328 64.064-12.8 45.952-17.856 92.992-19.392 140.544-0.128 1.728-0.768 3.392-1.152 5.056-0.64-5.632-1.472-11.2-1.92-16.832L112 478.848l-7.488-81.152c-2.688-28.8-6.272-57.6-8.128-86.464a120.96 120.96 0 0 1 32.448-92.992c12.48-13.568 27.136-24 44.224-30.976 1.28-0.512 2.304-1.664 3.392-2.496 35.84-9.92 72.896-8.448 109.504-11.136 43.968-3.2 88-5.568 132.032-8.256 8.512-0.512 17.024-0.832 25.536-1.28a158.72 158.72 0 0 1-34.112 29.632c-15.424 10.048-31.36 19.328-47.104 28.992z" fill="#515151" p-id="20297" data-spm-anchor-id="a313x.7781069.0.i11" class="selected"></path><path d="M332.416 790.464c-7.808 6.08-16.192 11.52-23.296 18.304-13.44 12.8-26.176 26.304-39.104 39.552-0.448 0.448-0.576 1.28-0.832 1.92a128.704 128.704 0 0 1-90.88-34.688 128.576 128.576 0 0 1-42.112-76.544c-1.28-7.68-1.728-15.488-2.56-23.232 2.752-1.088 2.752-2.048 0-4.48l-0.064-3.072c0.192-1.344 0.64-2.688 0.512-4.032-0.512-7.104-1.536-14.144-1.6-21.184-0.064-11.008 0-22.08 1.088-33.024 1.792-17.664 3.648-35.328 6.976-52.736a627.264 627.264 0 0 1 28.224-98.944c2.944-7.936 6.592-15.616 9.92-23.424l3.968 39.808 9.28 99.968c2.624 28.736 5.056 57.472 8 86.144 1.28 12.672 2.112 25.792 5.888 37.824 10.432 33.088 42.24 54.976 77.056 54.208 16.512-0.384 33.024-1.6 49.536-2.368z" fill="#515151" p-id="20298" data-spm-anchor-id="a313x.7781069.0.i9" class="selected"></path><path d="M178.688 474.88c-3.328 7.808-6.976 15.488-9.92 23.424a634.24 634.24 0 0 0-28.224 98.944 632.128 632.128 0 0 0-6.976 52.736 334.208 334.208 0 0 0-1.024 33.024c0 7.04 1.088 14.144 1.6 21.184 0.064 1.344-0.32 2.688-0.512 4.032-0.704-4.48-1.664-8.96-2.112-13.504l-5.568-65.024c-1.344-15.488-2.88-30.976-4.288-46.464 0.384-1.664 1.024-3.392 1.088-5.056 1.536-47.552 6.656-94.592 19.392-140.544 6.272-22.464 14.08-44.48 27.328-64.064 3.136 33.792 6.208 67.52 9.216 101.312z" fill="#515151" p-id="20299" data-spm-anchor-id="a313x.7781069.0.i18" class="selected"></path><path d="M304.64 848.256c12.48-9.088 24.384-18.944 37.44-27.008a173.696 173.696 0 0 1 64.128-23.68 179.84 179.84 0 0 1 52.416-0.96c31.04 4.096 59.52 14.784 85.952 31.168 2.496 1.536 4.672 3.712 6.976 5.568l-50.176 3.072c-0.512-0.704-0.896-1.536-1.536-2.112a95.744 95.744 0 0 0-63.616-23.296 181.12 181.12 0 0 0-51.008 6.72c-16.256 4.928-30.4 12.864-39.04 28.352l-41.536 2.176z" fill="#515151" p-id="20300" data-spm-anchor-id="a313x.7781069.0.i20" class="selected"></path><path d="M346.24 846.016c8.64-15.488 22.784-23.424 39.04-28.352 16.576-4.992 33.792-6.528 51.008-6.72 24-0.256 45.184 8 63.616 23.296 0.64 0.512 1.024 1.408 1.536 2.112l-74.944 4.48-70.144 4.288c-3.392 0.192-6.784 0.576-10.112 0.896zM133.632 711.296c2.752 2.432 2.752 3.392 0 4.48v-4.48z" fill="#515151" p-id="20301" data-spm-anchor-id="a313x.7781069.0.i19" class="selected"></path><path d="M646.656 205.568l-99.264 6.336 17.6-26.624 19.712-29.76 98.432-6.08c-7.232 10.496-14.656 20.864-21.696 31.552-5.184 8-9.856 16.384-14.784 24.576z" fill="#515151" p-id="20302" data-spm-anchor-id="a313x.7781069.0.i14" class="selected"></path><path d="M362.304 222.72c15.744-9.664 31.68-18.944 47.168-28.992 12.672-8.192 24.192-18.048 34.112-29.632l112.256-6.784c-4.8 3.264-9.344 6.976-14.4 9.728-23.936 12.992-47.872 25.856-72 38.464-8.448 4.416-17.344 8.064-26.112 12.032-6.144 0.64-12.288 1.536-18.432 1.92-14.784 0.896-29.696 1.536-44.544 2.304l-18.048 0.96zM584.704 155.52l-19.712 29.76-17.6 26.624-46.208 2.368-12.736 0.896c21.632-12.736 42.24-26.88 60.928-43.712 5.184-4.736 10.048-9.792 15.104-14.72l20.224-1.216z" fill="#515151" p-id="20303" data-spm-anchor-id="a313x.7781069.0.i13" class=""></path><path d="M564.416 156.736c-4.992 4.928-9.856 10.048-15.104 14.72a369.28 369.28 0 0 1-60.864 43.712l-45.12 2.368c8.768-3.968 17.664-7.616 26.112-12.032 24.128-12.608 48.064-25.472 72-38.464 5.056-2.752 9.6-6.464 14.4-9.728l8.576-0.576z" fill="#515151" p-id="20304" data-spm-anchor-id="a313x.7781069.0.i17" class="selected"></path><path d="M839.168 553.152c-0.448 0.96-0.768 1.984-1.344 2.816-21.632 33.472-43.264 66.944-64.96 100.288a34.944 34.944 0 0 1-36.928 15.616 34.944 34.944 0 0 1-27.648-27.776 32.384 32.384 0 0 1 4.288-24.64c22.144-34.432 44.416-68.736 66.688-103.04 0.576-0.896 1.408-1.536 2.176-2.304 2.88 6.4 4.736 13.568 8.832 19.008 5.376 7.104 12.352 13.056 22.72 8 1.024-0.512 4.544 1.152 4.608 2.048 0.704 7.232 5.952 8.64 11.584 9.408 3.264 0.576 6.656 0.448 9.984 0.576z" fill="#2c2c20" p-id="20305"></path><path d="M710.08 531.968c-3.84 1.344-7.552 3.2-11.52 3.968-16.896 3.328-34.112 5.376-50.816 9.536-48.192 12.096-94.4 30.08-140.352 48.768-40.832 16.64-81.408 33.728-121.728 51.584-17.152 7.616-33.216 17.664-49.728 26.624-7.424 4.032-14.784 8.256-22.144 12.416l-1.152-1.344c2.048-2.112 4.032-4.416 6.272-6.4a458.624 458.624 0 0 1 139.776-87.744c54.464-21.76 110.72-37.504 167.872-50.112 18.56-4.096 37.056-8.64 55.808-12.032 7.168-1.28 14.784-0.192 22.208 0.256 1.856 0.128 3.584 1.664 5.376 2.56l0.128 1.92z" fill="#515151" p-id="20306" data-spm-anchor-id="a313x.7781069.0.i6" class="selected"></path><path d="M774.016 435.008c-11.008 2.176-21.568 4.544-32.256 6.144a33.92 33.92 0 0 1-12.672-0.832 18.56 18.56 0 0 1-13.568-23.488c5.632-17.792 11.712-35.392 17.984-52.992a48.064 48.064 0 0 1 7.424-12.224c2.56-3.328 6.464-4.224 10.624-2.88 4.352 1.408 4.928 5.248 4.544 8.704a41.856 41.856 0 0 1-3.456 13.76c-5.248 10.688-11.392 20.928-16.704 31.552a49.088 49.088 0 0 0-4.608 14.592c-0.832 6.016 1.664 8.192 7.744 7.744 11.776-0.832 22.4-5.504 32.64-10.816 2.112-1.152 3.264-5.248 3.776-8.192 0.896-5.568 0.576-11.392 1.6-16.96 2.112-11.584 8.192-16.896 18.496-16.896 8.768 0 17.792 7.872 19.904 17.28a24.576 24.576 0 0 1-8.768 25.792 73.472 73.472 0 0 1-10.368 7.488 8.448 8.448 0 0 0-4.48 8.896c0.576 6.208 1.536 12.352 1.728 18.56 0.192 8.192-2.624 11.392-8.896 12.032-4.224 0.448-5.632-1.664-6.336-5.312-1.344-7.36-2.944-14.784-4.352-21.952z m22.976-44.224c-4.672 2.432-5.76 5.76-3.712 11.52 5.504-1.792 5.888-3.136 3.712-11.52z" fill="#515151" p-id="20307" data-spm-anchor-id="a313x.7781069.0.i8" class=""></path><path d="M414.72 484.352c11.2 6.016 22.016 11.584 32.64 17.664 2.56 1.472 5.312 3.968 6.144 6.592 0.832 2.56 0.32 7.04-1.472 8.576-1.792 1.6-6.272 1.728-8.768 0.64-10.944-4.672-21.568-9.984-32.384-15.04l-5.12-2.432-26.24 37.12c-1.216 1.728-2.368 3.52-3.648 5.184-3.328 4.416-7.936 6.08-10.944 4.096-3.904-2.56-5.056-9.28-2.24-13.696 8.192-13.12 16.384-26.304 24.768-39.296 2.112-3.2 1.344-4.416-1.6-6.592a560.448 560.448 0 0 1-29.632-23.424 19.712 19.712 0 0 1-5.952-9.856 11.392 11.392 0 0 1 2.304-9.024c1.472-1.6 6.016-1.92 8.192-0.832 4.864 2.432 9.344 5.76 13.504 9.344 6.528 5.504 12.48 11.648 18.944 17.216 6.272 5.376 9.92 4.352 13.184-3.52 2.752-6.528 5.12-13.248 7.744-19.84a26.88 26.88 0 0 1 2.752-5.184c2.816-3.904 8.32-5.568 11.712-3.648 3.776 2.112 5.376 8.32 3.136 12.736l-17.024 33.216z" fill="#515151" p-id="20308" data-spm-anchor-id="a313x.7781069.0.i4" class="selected"></path><path d="M512 497.92l32.768-9.088 1.6-0.512c5.952-1.344 10.752 0 11.52 3.712 1.216 5.504-3.2 7.808-6.976 9.28-15.616 6.08-31.36 11.648-46.976 17.472a60.096 60.096 0 0 0-9.28 4.096c-3.264 1.792-6.592 1.792-8.704-0.896a12.48 12.48 0 0 1-2.368-7.936c0.192-3.072 1.728-6.144 3.072-9.024l32.448-67.776c2.624-5.44-1.92-15.808-9.28-18.56-6.4-2.368-13.44-3.072-20.16-4.48-4.16-0.896-8.384-1.472-12.48-2.688-3.776-1.152-7.232-3.968-6.144-8.128 1.024-4.032 4.416-7.04 9.344-6.016 11.648 2.368 23.744 3.456 34.688 7.68 18.752 7.232 23.552 21.888 15.232 40.256-6.144 13.632-12.16 27.264-17.92 41.024-1.344 3.2-1.408 6.976-2.112 10.432L512 497.92zM289.792 542.208l24.128-6.592c4.608-1.28 9.216-2.688 13.888-3.712 3.84-0.832 7.872-0.512 9.6 3.648 1.856 4.608-1.984 6.976-5.12 8.704-3.968 2.24-8.384 3.776-12.736 5.44l-46.272 17.536c-5.312 1.984-11.072-1.792-10.24-7.424a43.84 43.84 0 0 1 3.776-11.584c10.24-21.696 20.672-43.328 30.976-64.96 3.136-6.656 0.96-15.424-5.632-19.2-4.48-2.56-9.856-3.776-14.976-4.992-6.208-1.472-12.672-1.92-18.88-3.392-5.312-1.152-8.576-5.376-7.68-8.704 0.96-3.648 5.888-6.528 10.752-5.632 11.136 2.176 22.464 3.84 33.152 7.36 9.472 3.2 17.728 9.6 18.752 20.608a40.576 40.576 0 0 1-2.624 18.048c-5.696 14.528-12.544 28.608-18.624 43.008-1.344 3.2-1.344 6.912-2.24 11.84z" fill="#515151" p-id="20309" data-spm-anchor-id="a313x.7781069.0.i3" class="selected"></path><path d="M839.168 553.152c-3.328-0.128-6.784 0-10.048-0.448-5.632-0.768-10.816-2.176-11.584-9.408-0.064-0.896-3.584-2.56-4.608-2.048-10.368 5.056-17.344-0.896-22.72-8-4.096-5.44-5.952-12.608-8.832-19.008a15.04 15.04 0 0 1 16.704-6.4c15.808 3.712 28.928 12.48 40 24 6.08 6.336 5.952 13.568 1.088 21.312z" fill="#2c2c20" p-id="20310"></path><path d="M596.544 474.752c-4.864-0.128-7.872-2.24-8.448-6.848-0.448-4.16 1.408-6.912 5.824-8.128 25.472-7.104 50.816-14.528 76.288-21.568 8-2.176 10.624-0.512 11.712 5.44 0.96 5.12-1.344 7.488-6.016 8.832-19.904 5.696-39.808 11.584-59.776 17.28-6.464 1.856-13.056 3.328-19.584 4.992z" fill="#2c2c20" p-id="20311"></path><path d="M668.096 398.656c-0.768 0.64-2.368 3.008-4.288 3.392-25.088 5.248-50.176 10.304-75.264 15.232-4.48 0.896-9.408-3.072-10.24-7.808-0.768-4.544 1.088-7.296 6.784-8.32 25.152-4.544 50.368-8.896 75.584-13.184 4.8-0.768 7.424 2.56 7.424 10.688z" fill="#2c2c20" p-id="20312"></path><path d="M186.944 251.52l1.408-0.768-1.408 0.768z" fill="#2c2c20" p-id="20313"></path><path d="M796.992 390.784c2.176 8.448 1.792 9.728-3.712 11.52-2.048-5.824-0.96-9.152 3.712-11.52z" fill="#2c2c20" p-id="20314"></path></svg>